<svg width="20" height="20" viewBox="0 0 20 20" fill="none" xmlns="http://www.w3.org/2000/svg">
<path d="M19.6 3.89999C18.9 4.19999 18.1 4.4 17.3 4.5C18.1 4 18.8 3.2 19.1 2.3C18.3 2.8 17.5 3.1 16.5 3.3C15.8 2.5 14.7 2 13.6 2C11.4 2 9.59999 3.8 9.59999 6C9.59999 6.3 9.6 6.59999 9.7 6.89999C6.4 6.69999 3.39999 5.1 1.39999 2.7C1.09999 3.3 0.899994 4 0.899994 4.7C0.899994 6.1 1.6 7.3 2.7 8C2 8 1.39999 7.8 0.899994 7.5C0.899994 9.4 2.29999 11.1 4.09999 11.4C3.79999 11.5 3.4 11.5 3 11.5C2.7 11.5 2.5 11.5 2.2 11.4C2.7 13 4.2 14.2 6 14.2C4.6 15.3 2.9 15.9 1 15.9C0.7 15.9 0.4 15.9 0 15.8C1.8 16.9 3.9 17.6 6.2 17.6C13.6 17.6 17.6 11.5 17.6 6.2V5.7C18.4 5.4 19.1 4.69999 19.6 3.89999Z" fill="#55ACE3"/>
</svg>
