<svg width="21" height="20" viewBox="0 0 21 20" fill="none" xmlns="http://www.w3.org/2000/svg">
<path d="M20.6727 14.876C20.6727 14.793 20.5897 14.793 20.5897 14.71C20.2576 14.0458 19.5104 13.2155 18.5141 12.3023C18.016 11.8872 17.7669 11.5551 17.6009 11.389C17.3518 11.0569 17.3518 10.8079 17.4348 10.4758C17.5179 10.2267 17.8499 9.8116 18.4311 9.06439C18.7632 8.64928 18.9292 8.40022 19.1783 8.15115C20.4236 6.49069 21.0048 5.41138 20.8387 4.91324L20.7557 4.83023C20.6727 4.74721 20.5897 4.66419 20.4236 4.66419C20.2576 4.58116 20.0085 4.58116 19.7595 4.66419H16.6046C16.5216 4.66419 16.5216 4.66419 16.3555 4.66419C16.2725 4.66419 16.1895 4.66419 16.1895 4.66419H16.1065H16.0234L15.9404 4.7472C15.8574 4.83022 15.8574 4.83022 15.8574 4.91324C15.5253 5.8265 15.1102 6.5737 14.6951 7.40393C14.446 7.81905 14.1969 8.23417 13.9479 8.56626C13.6988 8.89835 13.5327 9.14742 13.3667 9.31346C13.2006 9.47951 13.0346 9.56253 12.9516 9.72858C12.8685 9.8116 12.7025 9.89463 12.7025 9.8116C12.6195 9.8116 12.5365 9.8116 12.5365 9.72858C12.4534 9.64555 12.3704 9.56253 12.2874 9.47951C12.2044 9.39648 12.2044 9.23044 12.1213 9.06439C12.1213 8.89834 12.1213 8.7323 12.1213 8.64928C12.1213 8.56625 12.1213 8.31719 12.1213 8.15115C12.1213 7.90208 12.1213 7.73603 12.1213 7.653C12.1213 7.40393 12.1213 7.07185 12.1213 6.73976C12.1213 6.40767 12.1213 6.15859 12.1213 5.99255C12.1213 5.8265 12.1213 5.57743 12.1213 5.41139C12.1213 5.16232 12.1213 4.99627 12.1213 4.91324C12.1213 4.83022 12.0383 4.66418 12.0383 4.58116C11.9553 4.49814 11.8723 4.41511 11.7893 4.33209C11.7062 4.24906 11.5402 4.24907 11.4572 4.16604C11.0421 4.08302 10.5439 4 9.96276 4C8.6344 4 7.72114 4.08303 7.38905 4.24907C7.223 4.33209 7.05696 4.41511 6.97393 4.58116C6.80789 4.7472 6.80788 4.83023 6.89091 4.83023C7.30602 4.91325 7.63812 5.07929 7.80416 5.32836L7.88719 5.49442C7.97021 5.57744 7.9702 5.74348 8.05322 5.99255C8.13624 6.24161 8.13625 6.49068 8.13625 6.82277C8.13625 7.32091 8.13625 7.81905 8.13625 8.15115C8.13625 8.56626 8.05322 8.81532 8.05322 9.06439C8.05322 9.31346 7.97021 9.47951 7.88719 9.56253C7.80417 9.72858 7.80416 9.8116 7.72113 9.8116C7.72113 9.8116 7.72113 9.89462 7.63811 9.89462C7.55508 9.89462 7.47207 9.97765 7.30602 9.97765C7.223 9.97765 7.05696 9.89463 6.97393 9.8116C6.80789 9.72858 6.64184 9.56254 6.55882 9.39649C6.39277 9.23044 6.22672 8.98137 6.06068 8.64928C5.89463 8.31718 5.64555 7.9851 5.47951 7.48696L5.31348 7.15487C5.23045 6.98883 5.06441 6.65673 4.89836 6.24162C4.73231 5.8265 4.56626 5.49442 4.40022 5.0793C4.31719 4.91325 4.23418 4.83022 4.15116 4.7472H4.06813C4.06813 4.7472 3.9851 4.66419 3.90208 4.66419C3.81905 4.66419 3.73604 4.58116 3.65302 4.58116H0.664186C0.332094 4.58116 0.166051 4.66418 0.083028 4.7472L0 4.83023C0 4.83023 0 4.91325 0 4.99627C0 5.0793 5.06608e-06 5.16231 0.083028 5.32836C0.498143 6.32463 0.996278 7.32091 1.49442 8.31719C1.99255 9.23044 2.4907 10.0607 2.82279 10.6418C3.2379 11.223 3.56999 11.8042 3.9851 12.3023C4.40022 12.8004 4.64928 13.1325 4.7323 13.2986C4.89835 13.4646 4.98137 13.5476 5.06439 13.6307L5.31348 13.8797C5.47952 14.0458 5.72858 14.2948 6.06068 14.5439C6.39277 14.793 6.80788 15.042 7.22299 15.2911C7.63811 15.5402 8.13625 15.7062 8.63439 15.8723C9.21555 16.0383 9.71369 16.1213 10.2118 16.0383H11.4572C11.7062 16.0383 11.8723 15.9553 12.0383 15.7893L12.1213 15.7062C12.1213 15.6232 12.2044 15.6232 12.2044 15.5402C12.2044 15.4572 12.2044 15.3741 12.2044 15.2081C12.2044 14.876 12.2044 14.6269 12.2874 14.3779C12.3704 14.1288 12.3704 13.9628 12.4535 13.7967C12.5365 13.6307 12.6195 13.5476 12.7025 13.4646C12.7855 13.3816 12.8686 13.2986 12.8686 13.2986H12.9516C13.1176 13.2155 13.3667 13.2986 13.5327 13.4646C13.7818 13.6307 14.0309 13.8797 14.1969 14.1288C14.363 14.3779 14.612 14.6269 14.9441 14.959C15.2762 15.2911 15.5253 15.5402 15.6913 15.6232L15.9404 15.7893C16.1064 15.8723 16.2725 15.9553 16.5216 16.0383C16.7706 16.1213 16.9367 16.1213 17.1027 16.1213L19.9255 16.0383C20.1746 16.0383 20.4236 15.9553 20.5897 15.8723C20.7557 15.7893 20.8387 15.7062 20.8387 15.5402C20.8387 15.4572 20.8387 15.2911 20.8387 15.2081C20.6727 15.042 20.6727 14.959 20.6727 14.876Z" fill="#7294C7"/>
</svg>
