<svg width="28" height="28" viewBox="0 0 28 28" fill="none" xmlns="http://www.w3.org/2000/svg">
<path fill-rule="evenodd" clip-rule="evenodd" d="M10.2112 0.0595835C5.54451 0.551702 1.68153 3.82326 0.406919 8.36291C0.0625041 9.58956 -0.0786569 11.159 0.043011 12.4085C0.594732 18.0745 5.08916 22.414 10.7566 22.7528L11.3821 22.7902V22.3442V21.8982H11.1062C10.9544 21.8982 10.5909 21.8719 10.2985 21.8397C5.90125 21.3567 2.28845 18.238 1.2022 13.9873C0.954917 13.0198 0.900599 12.5512 0.900599 11.3868C0.900599 10.5591 0.925513 10.1279 0.995437 9.74439C1.20548 8.59252 1.45079 7.81895 1.91194 6.85447C2.96057 4.66143 4.65883 2.96313 6.84535 1.92097C7.81508 1.45875 8.5994 1.20965 9.73942 1.00188C10.4673 0.869178 12.2969 0.869178 13.0248 1.00188C14.1782 1.21211 14.9505 1.4571 15.9189 1.92004C18.8593 3.32561 20.9652 5.98991 21.6489 9.16955C21.7877 9.81479 21.8953 10.6627 21.8953 11.1109V11.3868H22.3414H22.7874L22.7501 10.7614C22.58 7.9182 21.4135 5.32562 19.3947 3.30453C17.0277 0.934874 13.5532 -0.292876 10.2112 0.0595835ZM10.5334 2.22098C9.80935 2.32166 9.4807 2.38227 9.04013 2.4962C7.96232 2.77508 6.81392 3.32654 5.89938 4.00458C5.39875 4.37565 4.42809 5.29014 4.42809 5.39065C4.42809 5.42619 4.56843 5.56896 4.73993 5.70791L5.05176 5.96057L5.63415 5.39799C8.44839 2.67954 12.7183 2.29823 16.0049 4.47179C17.1547 5.23222 18.3225 6.58599 18.9038 7.8323C19.1539 8.3686 19.486 9.33565 19.486 9.52775C19.486 9.68657 19.6039 9.71077 20.0068 9.63478C20.4343 9.55414 20.4331 9.55956 20.2008 8.778C19.2195 5.47518 16.51 3.02335 13.1003 2.35254C12.5291 2.2402 10.9698 2.16027 10.5334 2.22098ZM7.98723 5.34029C6.7078 5.61501 5.60113 6.73167 5.33151 8.01987C4.81133 10.5057 7.00989 12.7056 9.48952 12.1804C9.69836 12.1362 10.0803 11.9958 10.3382 11.8685C11.7194 11.1869 12.4975 9.57506 12.1781 8.05704C11.7765 6.14797 9.89772 4.93002 7.98723 5.34029ZM9.38121 6.21492C10.3256 6.4609 11.0531 7.19056 11.3004 8.13992C11.6551 9.50131 10.7835 10.9378 9.38121 11.303C7.62256 11.761 5.90201 10.2136 6.16221 8.40791C6.38452 6.86482 7.9034 5.83005 9.38121 6.21492ZM3.36604 6.88387C1.76377 9.71888 1.80249 13.2518 3.46663 16.0676C4.63337 18.0418 6.56347 19.5478 8.76488 20.2017C9.56053 20.438 9.54383 20.4423 9.62701 19.9769C9.66534 19.7627 9.67536 19.5698 9.64946 19.5465C9.62367 19.5234 9.43005 19.4623 9.21924 19.4108C8.60143 19.26 7.76049 18.906 7.15472 18.5417C5.08319 17.2961 3.70641 15.3491 3.21782 12.9744C3.05109 12.1642 3.03729 10.725 3.18841 9.90863C3.35613 9.00235 3.77343 7.89833 4.25731 7.08069L4.42437 6.79847L4.08017 6.57428C3.89088 6.45099 3.72064 6.35009 3.70186 6.35009C3.68308 6.35009 3.53195 6.59032 3.36604 6.88387ZM20.0464 10.5101C19.8577 10.5315 19.6954 10.559 19.6857 10.571C19.676 10.5831 19.6792 10.7715 19.6927 10.9899L19.7174 11.3868H20.1493H20.5811L20.5805 11.1267C20.5796 10.7517 20.5216 10.4549 20.4507 10.4636C20.4171 10.4677 20.2351 10.4886 20.0464 10.5101ZM13.2672 10.5948C11.4174 11.001 10.1903 12.887 10.5817 14.7225C10.6848 15.2058 11.0263 15.919 11.3137 16.2514L11.52 16.4898L11.8374 16.18L12.1548 15.8701L11.9794 15.6703C11.7282 15.3843 11.4908 14.8423 11.422 14.3979C11.2961 13.5849 11.565 12.7807 12.1614 12.1861C13.2061 11.1445 14.7771 11.1324 15.845 12.1576L16.1944 12.4931L16.526 12.2605C16.7084 12.1325 16.8577 12.0033 16.8577 11.9734C16.8577 11.9434 16.6753 11.7394 16.4523 11.5201C15.6152 10.6967 14.4049 10.345 13.2672 10.5948ZM19.131 12.3219C15.7394 12.7892 13.0611 15.3247 12.3852 18.7081C12.252 19.3752 12.252 20.9174 12.3852 21.5845C12.9583 24.4528 14.9801 26.7469 17.7255 27.6439C18.5663 27.9185 19.0885 27.9973 20.0883 28C21.4881 28.0038 22.4794 27.7768 23.6795 27.1777C25.8686 26.0849 27.4236 24.0091 27.9012 21.5423C28.0331 20.8605 28.0329 19.3706 27.9007 18.7081C27.5804 17.102 26.8512 15.7343 25.7034 14.5868C24.5622 13.4458 23.1774 12.7051 21.6114 12.398C21.0669 12.2913 19.6653 12.2482 19.131 12.3219ZM21.6215 13.2971C22.9855 13.608 24.0807 14.2147 25.0782 15.212C25.9181 16.0519 26.4293 16.8741 26.7955 17.9744C27.4726 20.0085 27.1543 22.2597 25.9312 24.088C25.5782 24.6156 24.6131 25.5805 24.0855 25.9334C21.412 27.7213 17.9295 27.5117 15.5457 25.4194C14.082 24.1345 13.2522 22.4187 13.1546 20.4747C12.9734 16.8699 15.6127 13.7026 19.2218 13.1936C19.7611 13.1176 21.0839 13.1746 21.6215 13.2971ZM19.1848 13.6336C16.337 14.0762 14.0778 16.3328 13.6515 19.1606C13.5678 19.7155 13.5498 20.4043 13.6078 20.828L13.6434 21.087L13.8953 21.0518C14.0339 21.0325 14.2246 21.0034 14.3191 20.9871L14.4909 20.9576L14.4622 20.3956C14.3501 18.1997 15.5962 16.0618 17.561 15.079C19.8082 13.955 22.4387 14.3838 24.1989 16.1613C24.6232 16.5898 25.0976 17.2694 25.3119 17.7561C25.4893 18.1588 25.7279 18.9092 25.729 19.0679C25.7307 19.319 25.7875 19.3411 26.2423 19.2677C26.5832 19.2128 26.6569 19.1837 26.6367 19.112C26.623 19.0636 26.5833 18.8802 26.5484 18.7045C26.1583 16.7381 24.5842 14.8619 22.6581 14.0678C21.9124 13.7604 21.234 13.6246 20.3347 13.6026C19.883 13.5916 19.3655 13.6056 19.1848 13.6336ZM17.4055 16.7305C16.1649 17.1812 15.8027 18.7108 16.7195 19.6275C17.0812 19.9891 17.4052 20.1172 17.9528 20.1153C18.3472 20.1139 18.4609 20.0915 18.6979 19.9687C19.1103 19.755 19.2823 19.589 19.4891 19.2047C19.6584 18.8903 19.6748 18.8185 19.6752 18.3944C19.6758 17.8468 19.547 17.522 19.1861 17.1613C18.7362 16.7115 17.9689 16.5258 17.4055 16.7305ZM21.786 16.7305C20.5454 17.1812 20.1831 18.7108 21.1 19.6275C21.4617 19.9891 21.7856 20.1172 22.3333 20.1153C22.7277 20.1139 22.8414 20.0915 23.0784 19.9687C23.4908 19.755 23.6628 19.589 23.8696 19.2047C24.0388 18.8903 24.0553 18.8185 24.0557 18.3944C24.0563 17.8468 23.9275 17.522 23.5666 17.1613C23.1167 16.7115 22.3494 16.5258 21.786 16.7305ZM18.2994 17.5931C18.8619 17.8281 18.9991 18.5656 18.5616 19.003C17.9464 19.6181 16.9383 19.0672 17.1002 18.2043C17.1969 17.689 17.7968 17.3831 18.2994 17.5931ZM22.6799 17.5931C23.2424 17.8281 23.3796 18.5656 22.9421 19.003C22.3269 19.6181 21.3188 19.0672 21.4806 18.2043C21.5774 17.689 22.1773 17.3831 22.6799 17.5931ZM10.5398 19.826C10.5245 19.9269 10.4991 20.1235 10.4835 20.263C10.4558 20.5108 10.459 20.5173 10.6243 20.5504C10.7174 20.569 10.9259 20.5842 11.0878 20.5842H11.3821V20.1463V19.7083L11.0946 19.7075C10.9366 19.7071 10.7533 19.6924 10.6875 19.6747C10.585 19.6472 10.5638 19.669 10.5398 19.826ZM25.7986 20.7348C25.591 22.6784 24.4189 24.3702 22.6832 25.2319C20.2702 26.4297 17.4768 25.8212 15.6999 23.7106L15.4514 23.4152L15.1142 23.6442C14.9287 23.7701 14.777 23.8884 14.777 23.9071C14.777 23.9889 15.258 24.5529 15.625 24.9015C16.9266 26.1376 18.6985 26.7933 20.4716 26.6949C22.1589 26.6013 23.5952 25.9611 24.773 24.7778C25.9204 23.6252 26.5596 22.2405 26.6901 20.6253L26.7288 20.1463H26.2952H25.8615L25.7986 20.7348ZM17.4055 20.6722C16.1649 21.1229 15.8027 22.6526 16.7195 23.5692C17.0812 23.9309 17.4052 24.059 17.9528 24.0571C18.3472 24.0557 18.4609 24.0333 18.6979 23.9105C19.1103 23.6968 19.2823 23.5308 19.4891 23.1464C19.6584 22.832 19.6748 22.7603 19.6752 22.3361C19.6758 21.7886 19.547 21.4638 19.1861 21.103C18.7362 20.6532 17.9689 20.4676 17.4055 20.6722ZM21.786 20.6722C20.5454 21.1229 20.1831 22.6526 21.1 23.5692C21.4617 23.9309 21.7856 24.059 22.3333 24.0571C22.7277 24.0557 22.8414 24.0333 23.0784 23.9105C23.4908 23.6968 23.6628 23.5308 23.8696 23.1464C24.0388 22.832 24.0553 22.7603 24.0557 22.3361C24.0563 21.7886 23.9275 21.4638 23.5666 21.103C23.1167 20.6532 22.3494 20.4676 21.786 20.6722ZM18.2994 21.5349C18.8619 21.7699 18.9991 22.5073 18.5616 22.9448C17.9464 23.5599 16.9383 23.009 17.1002 22.1461C17.1969 21.6307 17.7968 21.3249 18.2994 21.5349ZM22.6799 21.5349C23.2424 21.7699 23.3796 22.5073 22.9421 22.9448C22.3269 23.5599 21.3188 23.009 21.4806 22.1461C21.5774 21.6307 22.1773 21.3249 22.6799 21.5349ZM14.2364 21.8999C14.0444 21.9565 13.8768 22.0135 13.8638 22.0265C13.8252 22.0651 14.1781 22.9383 14.2324 22.9383C14.2597 22.9383 14.4432 22.8589 14.6402 22.7618C14.9088 22.6294 14.9891 22.5644 14.9615 22.5017C14.9413 22.4558 14.873 22.2766 14.8098 22.1035C14.7466 21.9303 14.6703 21.7905 14.6401 21.7928C14.61 21.7951 14.4283 21.8434 14.2364 21.8999Z" fill="#BF1E77"/>
</svg>
