<svg width="37" height="38" viewBox="0 0 37 38" fill="none" xmlns="http://www.w3.org/2000/svg">
<path fill-rule="evenodd" clip-rule="evenodd" d="M2.87962 0.626071C1.53175 0.988496 0.474541 2.06078 0.118974 3.42595C0.0153901 3.8237 0 6.02704 0 20.4956V37.1086L0.195765 37.3042L0.39145 37.5H5.72894C10.8649 37.5 11.0735 37.4943 11.2546 37.3476L11.4429 37.1952L11.4828 32.47L11.5226 27.7448L13.8351 31.7524C15.107 33.9566 16.2179 35.7979 16.3038 35.8442C16.3896 35.8906 16.5523 35.9259 16.6653 35.9226C16.8691 35.9169 25.545 30.9646 25.896 30.6537C26.1858 30.3971 26.1273 30.0801 25.6276 29.1974C25.005 28.0978 24.6843 27.8845 24.2123 28.2558C23.9197 28.4859 23.9406 28.8025 24.2895 29.4263C24.4475 29.7088 24.5462 29.969 24.5088 30.0044C24.3647 30.1408 17.05 34.33 16.9388 34.3399C16.8631 34.3465 15.8706 32.7066 14.152 29.7354L11.4828 25.1207V21.147C11.4828 18.3637 11.4558 17.1142 11.3927 16.9758C11.1909 16.5329 10.4988 16.5329 10.297 16.9758C10.2316 17.1191 10.2069 19.7893 10.2069 26.6988V36.2241H5.74042H1.27395L1.29484 19.937L1.31573 3.64978L1.53064 3.24255C1.84888 2.63914 2.08922 2.39083 2.64733 2.08821L3.14978 1.81573H5.74138H8.33297L8.74021 2.03064C9.34362 2.34888 9.59193 2.58922 9.89455 3.14733L10.167 3.64978L10.2069 8.38156L10.2468 13.1133L10.435 13.2657C10.6755 13.4603 11.0142 13.4604 11.2546 13.2657L11.4429 13.1134L11.4828 10.2182L11.5226 7.32315L16.6529 16.2117C19.4745 21.1004 21.8581 25.1809 21.9496 25.2796C22.1131 25.4557 22.4206 25.5102 22.6828 25.4095C22.8689 25.3382 23.0628 24.9224 23.001 24.7276C22.9615 24.6033 22.0762 23.0261 21.4712 22.0023C21.4193 21.9143 21.1477 21.7607 25.597 24.3356C29.525 26.6088 29.7597 26.7206 30.0844 26.4758C30.2025 26.3866 35.3029 17.6271 35.431 17.2934C35.4598 17.2184 35.4351 17.0424 35.3761 16.9023C35.2823 16.6797 34.7635 16.3564 31.2558 14.3351L27.2428 12.0226L31.969 11.9828L36.6952 11.9429L36.8476 11.7546C36.9943 11.5735 37 11.3649 37 6.22894V0.89145L36.8042 0.695765L36.6086 0.5H33.3393C31.0794 0.5 30.009 0.52783 29.8723 0.590108C29.4294 0.791853 29.4294 1.48401 29.8723 1.68575C30.0073 1.74731 30.9658 1.77586 32.8971 1.77586H35.7241V6.24138V10.7069H30.3463H24.9685L18.0462 6.71249C14.2389 4.51554 11.1114 2.6838 11.0961 2.64201C11.0808 2.60015 10.9487 2.38812 10.8025 2.1709L10.5366 1.77586H18.2299H25.9232L26.1189 1.5801C26.2423 1.45674 26.3147 1.29327 26.3147 1.13793C26.3147 0.982595 26.2423 0.819125 26.1189 0.695765L25.9232 0.5L14.6162 0.505263C5.00545 0.509728 3.24484 0.52783 2.87962 0.626071ZM27.8236 0.733084C27.6954 0.861308 27.5905 1.04344 27.5905 1.13793C27.5905 1.37947 28.0102 1.77586 28.2658 1.77586C28.5552 1.77586 28.8664 1.44533 28.8664 1.13793C28.8664 0.830528 28.5552 0.5 28.2658 0.5C28.141 0.5 27.9628 0.594015 27.8236 0.733084ZM4.9041 4.43787C4.17622 4.78203 3.75135 5.44668 3.75135 6.24138C3.75135 7.34707 4.63672 8.23332 5.74138 8.23332C6.84548 8.23332 7.72989 7.34843 7.73236 6.24138C7.73563 4.7873 6.21544 3.81796 4.9041 4.43787ZM21.6498 10.2693C27.1759 13.459 32.1926 16.3564 32.798 16.7078C33.651 17.2029 33.8879 17.3758 33.8499 17.4757C33.7857 17.6442 29.5877 24.9194 29.5021 25.0105C29.4656 25.0493 28.1485 24.3356 26.5399 23.4055C24.9468 22.4843 22.8539 21.2742 21.889 20.7164L20.1347 19.7023L18.5446 16.939C17.6701 15.4191 15.7233 12.044 14.2186 9.43877C11.8359 5.31335 11.2821 4.27759 11.5426 4.4338C11.5754 4.4535 16.1237 7.07946 21.6498 10.2693ZM6.24885 5.73391C6.53816 6.02329 6.53816 6.45947 6.24885 6.74885C5.79178 7.20585 5.02371 6.88768 5.02371 6.24138C5.02371 5.59508 5.79178 5.27691 6.24885 5.73391ZM10.44 14.9271C10.3009 15.0662 10.2069 15.2444 10.2069 15.3693C10.2069 15.6587 10.5374 15.9698 10.8448 15.9698C11.1522 15.9698 11.4828 15.6587 11.4828 15.3693C11.4828 15.1136 11.0864 14.694 10.8448 14.694C10.7503 14.694 10.5682 14.7988 10.44 14.9271ZM23.241 26.6117C22.7304 27.1223 23.2752 27.9046 23.9587 27.6423C24.1041 27.5865 24.3211 27.2089 24.3211 27.0119C24.3211 26.8051 23.8802 26.4159 23.6458 26.4159C23.5302 26.4159 23.3493 26.5033 23.241 26.6117Z" fill="#BF1E77"/>
</svg>
