<svg width="57" height="40" viewBox="0 0 57 40" fill="none" xmlns="http://www.w3.org/2000/svg">
<path fill-rule="evenodd" clip-rule="evenodd" d="M7.80524 0.124296C5.67907 0.546676 3.81854 1.67031 2.33166 3.42989C0.0198329 6.16598 -0.612876 9.68197 0.613046 12.9803C1.36368 15.0002 3.09501 16.9286 5.06455 17.9387C7.43796 19.1559 10.7924 19.1639 13.165 17.9582L13.5672 17.7537L14.727 18.8777L15.8868 20.0016L14.727 21.1254L13.5672 22.2494L13.165 22.0425C12.9438 21.9287 12.3361 21.692 11.8145 21.5166C10.9377 21.2217 10.7357 21.1976 9.13682 21.1975C7.47589 21.1975 7.36555 21.2121 6.34759 21.5658C3.31447 22.6197 1.1748 24.8892 0.302884 27.9774C-0.0290342 29.1533 -0.053691 31.5253 0.254352 32.6572C0.701409 34.2996 1.58225 35.8203 2.85525 37.1475C4.63143 38.9993 6.92898 39.9951 9.43638 40C14.2997 40.0093 18.2782 36.2251 18.582 31.3012C18.6712 29.8559 18.4656 28.5982 17.8962 27.1063C17.8449 26.972 18.1177 26.6773 18.9163 26.0046C19.9639 25.1222 20.0285 25.0864 20.5707 25.0864H21.1349L27.6594 31.4259C31.248 34.9127 34.4853 37.9944 34.8535 38.2744C36.2937 39.3692 37.7077 39.881 39.5417 39.9708C40.5594 40.0208 40.9305 39.9904 41.6962 39.7942C42.8985 39.4863 43.8654 38.9965 44.7811 38.2317C45.5902 37.5558 45.7967 37.2292 45.6891 36.7955C45.639 36.5931 42.7922 34.1288 35.8848 28.3086C30.5313 23.7976 26.1511 20.0598 26.1511 20.0021C26.1511 19.9446 30.5313 16.2065 35.8848 11.6952C42.793 5.87388 45.639 3.41023 45.6891 3.20774C45.7966 2.7744 45.5903 2.4475 44.785 1.77483C42.0397 -0.518539 38.0696 -0.596733 35.0553 1.58319C34.6375 1.88534 31.3342 5.00901 27.7145 8.52466L21.1335 14.9167H20.57C20.0287 14.9167 19.9635 14.8806 18.9163 13.9985C18.1177 13.3259 17.8449 13.0312 17.8962 12.8968C18.4656 11.4049 18.6712 10.1473 18.582 8.70195C18.3982 5.72202 16.8946 3.10265 14.434 1.47584C13.545 0.888038 12.1417 0.320797 11.0888 0.123731C10.3294 -0.0184181 8.5223 -0.0181924 7.80524 0.124296ZM11.2818 1.80127C12.9358 2.22964 14.4656 3.2361 15.4372 4.53499C17.2085 6.90283 17.5231 9.7979 16.3103 12.5676C16.1385 12.9598 16.053 13.3151 16.0924 13.4739C16.1286 13.6202 16.6246 14.1246 17.2209 14.6215L18.2847 15.5079L17.5237 16.2215C17.1051 16.6141 16.641 17.1674 16.4922 17.4514C16.3435 17.7353 16.1796 17.9676 16.128 17.9676C16.0762 17.9676 15.5661 17.51 14.9942 16.9507C14.4223 16.3913 13.8759 15.9337 13.7799 15.9337C13.6839 15.9337 13.2036 16.1389 12.7127 16.3897C8.07111 18.76 2.73253 16.182 1.71122 11.077C1.35487 9.29609 1.70018 7.27131 2.63501 5.65908C2.86674 5.25964 3.48751 4.49047 4.01457 3.9499C4.81441 3.12966 5.14666 2.88005 6.02281 2.4414C6.6003 2.15224 7.39913 1.845 7.79799 1.75845C8.86649 1.52669 10.2894 1.54421 11.2818 1.80127ZM41.8408 1.88082C42.5749 2.14151 43.7404 2.83056 43.6926 2.97587C43.6744 3.03112 39.5969 6.50248 34.6314 10.6901L25.6031 18.3039L25.3412 17.7458C25.0042 17.0276 24.2398 16.1695 23.5208 15.7022L22.9539 15.3338L23.3252 14.9721C26.7808 11.6075 34.711 3.94933 35.2964 3.41181C36.1401 2.63688 37.2496 2.02998 38.3195 1.75822C39.2356 1.52545 41.0139 1.58737 41.8408 1.88082ZM8.41274 3.97589C6.84184 4.27928 5.13528 5.67015 4.39837 7.24758C2.23203 11.8846 6.90678 16.6311 11.4798 14.438C12.5144 13.9417 13.697 12.7235 14.21 11.6253C15.2202 9.46287 14.8426 7.12283 13.2168 5.47196C11.9334 4.16888 10.2034 3.63012 8.41274 3.97589ZM10.625 5.65365C11.6043 5.95999 12.4377 6.72045 12.8768 7.7086C13.1347 8.28872 13.1929 8.57856 13.1936 9.28445C13.1943 10.0299 13.1452 10.2507 12.8379 10.8829C12.3177 11.953 11.2748 12.9113 10.2976 13.2169C9.37112 13.5068 8.90398 13.5072 7.98331 13.2192C6.44756 12.7389 5.41632 11.2878 5.41476 9.60502C5.41376 8.51336 5.76129 7.70928 6.63589 6.78079C7.81595 5.52766 9.08037 5.17048 10.625 5.65365ZM22.3237 16.8182C22.9911 17.149 23.6666 17.8323 23.9964 18.5106C24.2058 18.941 24.2539 19.2224 24.2517 20.0016C24.2484 21.1303 24.0183 21.7189 23.2879 22.466C22.6484 23.1202 21.9849 23.4173 21.0307 23.4771C18.497 23.6358 16.7224 21.147 17.6257 18.702C17.9264 17.8881 18.7373 17.0531 19.5366 16.7343C20.3403 16.4138 21.583 16.4512 22.3237 16.8182ZM20.2674 17.8542C19.6449 18.044 19.1942 18.4272 18.907 19.011C18.5476 19.7416 18.5446 20.2554 18.8956 20.9687C19.5438 22.2861 21.1793 22.6301 22.2533 21.6749C23.2667 20.7738 23.3176 19.4185 22.3739 18.4628C21.7548 17.8358 21.0221 17.624 20.2674 17.8542ZM29.7163 19.488C29.5657 19.6406 29.4424 19.8716 29.4424 20.0016C29.4424 20.1315 29.5657 20.3626 29.7163 20.5151C29.9887 20.7911 30.0016 20.7925 32.2142 20.7925C34.2094 20.7925 34.4645 20.7711 34.6924 20.5842C34.8642 20.4433 34.9465 20.2547 34.9465 20.0016C34.9465 19.7485 34.8642 19.5599 34.6924 19.419C34.4645 19.2321 34.2094 19.2106 32.2142 19.2106C30.0016 19.2106 29.9887 19.2121 29.7163 19.488ZM37.0485 19.4721C36.7339 19.8114 36.74 20.2384 37.0641 20.5469C37.3117 20.7824 37.4158 20.7925 39.5745 20.7925C41.6779 20.7925 41.8413 20.7776 42.0497 20.5666C42.1737 20.441 42.2729 20.1899 42.2729 20.0016C42.2729 19.8132 42.1737 19.5621 42.0497 19.4366C41.8412 19.2254 41.6779 19.2106 39.5588 19.2106C37.3327 19.2106 37.2867 19.2153 37.0485 19.4721ZM44.3927 19.4366C44.2687 19.5621 44.1695 19.8132 44.1695 20.0016C44.1695 20.1899 44.2687 20.441 44.3927 20.5666C44.6012 20.7777 44.7645 20.7925 46.8836 20.7925C49.1097 20.7925 49.1557 20.7878 49.3939 20.5311C49.7085 20.1917 49.7024 19.7647 49.3783 19.4563C49.1307 19.2208 49.0266 19.2106 46.868 19.2106C44.7645 19.2106 44.6011 19.2255 44.3927 19.4366ZM51.75 19.419C51.5782 19.5599 51.496 19.7485 51.496 20.0016C51.496 20.2547 51.5782 20.4433 51.75 20.5842C51.9779 20.7711 52.233 20.7925 54.2282 20.7925C56.4408 20.7925 56.4538 20.7911 56.7261 20.5151C56.8767 20.3626 57 20.1315 57 20.0016C57 19.8716 56.8767 19.6406 56.7261 19.488C56.4538 19.2121 56.4408 19.2106 54.2282 19.2106C52.233 19.2106 51.9779 19.2321 51.75 19.419ZM21.2471 19.601C21.3977 19.7535 21.521 19.9246 21.521 19.9812C21.521 20.1941 21.0501 20.6796 20.8434 20.6796C20.5631 20.6796 20.1822 20.2891 20.1822 20.0016C20.1822 19.7337 20.5564 19.3236 20.8008 19.3236C20.8957 19.3236 21.0965 19.4485 21.2471 19.601ZM34.8332 29.4796C39.7227 33.605 43.7233 37.0137 43.7233 37.0547C43.7233 37.1908 42.4783 37.896 41.8408 38.1212C40.9636 38.4309 39.4194 38.492 38.4237 38.2566C37.3044 37.9918 36.1479 37.373 35.2756 36.572C34.706 36.0491 26.739 28.3549 23.3252 25.031L22.9539 24.6693L23.5208 24.301C24.2423 23.832 25.0214 22.9562 25.3371 22.259C25.5465 21.7967 25.6099 21.7356 25.7631 21.8476C25.8622 21.9198 29.9437 25.3543 34.8332 29.4796ZM16.4922 22.5518C16.641 22.8357 17.1051 23.3891 17.5237 23.7816L18.2847 24.4952L17.2209 25.3817C16.6246 25.8785 16.1286 26.3829 16.0924 26.5293C16.053 26.688 16.1385 27.0434 16.3103 27.4356C17.521 30.2004 17.2082 33.101 15.4448 35.4579C13.7312 37.7483 10.7193 38.8566 7.85378 38.251C7.42423 38.1602 6.6003 37.8498 6.02281 37.5611C5.14588 37.1226 4.81508 36.8743 4.01457 36.0533C2.91126 34.9216 2.3321 33.994 1.92967 32.7137C0.801375 29.1241 2.39637 25.2651 5.71879 23.5459C7.90956 22.4123 10.4078 22.4365 12.7127 23.6135C13.2036 23.8642 13.682 24.0694 13.7758 24.0694C13.8695 24.0694 14.4205 23.6118 15.0002 23.0525C15.5799 22.4931 16.0919 22.0355 16.138 22.0355C16.1841 22.0355 16.3435 22.2678 16.4922 22.5518ZM7.94839 25.1339C7.0073 25.3651 6.13773 25.8657 5.40372 26.5992C4.21004 27.792 3.6513 29.4408 3.88693 31.0752C4.12089 32.6973 5.23 34.4098 6.63912 35.3248C8.73908 36.6883 11.5176 36.3813 13.2593 34.5932C14.94 32.8678 15.3064 30.3293 14.1816 28.2025C13.769 27.4221 12.3416 25.976 11.6214 25.6086C10.4705 25.0213 9.11785 24.8465 7.94839 25.1339ZM10.7295 26.9437C11.504 27.3148 12.5134 28.3804 12.8995 29.2346C13.7963 31.2184 12.6913 33.7032 10.625 34.3495C9.70437 34.6375 9.23723 34.6371 8.31076 34.3472C7.33353 34.0416 6.29069 33.0833 5.77044 32.0132C5.46318 31.381 5.41409 31.1602 5.41476 30.4147C5.41543 29.7089 5.47367 29.419 5.73151 28.8389C6.5936 26.8993 8.85053 26.0435 10.7295 26.9437Z" fill="#BF1E77"/>
</svg>
