<svg width="29" height="29" viewBox="0 0 29 29" fill="none" xmlns="http://www.w3.org/2000/svg">
<g id="exclamation-circle">
<path id="Vector" d="M15.0003 20.1003V19.6003H14.0003V20.1003H15.0003ZM14.0003 20.1189V20.6189H15.0003V20.1189H14.0003ZM14.0003 7.96693V15.4336H15.0003V7.96693H14.0003ZM14.0003 20.1003V20.1189H15.0003V20.1003H14.0003ZM14.5003 27.0669C7.55988 27.0669 1.93359 21.4406 1.93359 14.5003H0.933594C0.933594 21.9929 7.0076 28.0669 14.5003 28.0669V27.0669ZM27.0669 14.5003C27.0669 21.4406 21.4406 27.0669 14.5003 27.0669V28.0669C21.9929 28.0669 28.0669 21.9929 28.0669 14.5003H27.0669ZM14.5003 1.93359C21.4406 1.93359 27.0669 7.55988 27.0669 14.5003H28.0669C28.0669 7.0076 21.9929 0.933594 14.5003 0.933594V1.93359ZM14.5003 0.933594C7.0076 0.933594 0.933594 7.0076 0.933594 14.5003H1.93359C1.93359 7.55988 7.55988 1.93359 14.5003 1.93359V0.933594Z" fill="#BF1E77"/>
</g>
</svg>
