<svg width="38" height="38" viewBox="0 0 38 38" fill="none" xmlns="http://www.w3.org/2000/svg">
<path fill-rule="evenodd" clip-rule="evenodd" d="M3.94244 0.575793C3.45969 0.668194 2.71758 1.01553 2.25181 1.36721C1.82104 1.69242 1.29967 2.35593 1.072 2.86862C0.707885 3.68838 0.717573 3.39404 0.716417 13.7364L0.715332 23.4015L0.905847 23.5513C1.14567 23.74 1.29671 23.7404 1.53502 23.5529L1.72351 23.4046L1.74578 13.7018C1.76631 4.74073 1.77752 3.9718 1.89255 3.64355C2.17799 2.82879 2.73349 2.21552 3.5262 1.83992L4.00506 1.61303L9.74856 1.59366C16.1148 1.57218 15.8101 1.55201 16.5895 2.04764C17.3106 2.50618 17.7902 3.26021 17.9226 4.14359C17.974 4.48666 17.992 9.08693 17.9788 18.4232L17.9593 32.1966L17.7978 31.8691C17.3391 30.9382 16.3595 30.1661 15.2809 29.8852C14.6542 29.722 4.28364 29.7193 3.65823 29.8822C3.11589 30.0235 2.44255 30.3676 2.09622 30.6804C1.94345 30.8184 1.79805 30.9314 1.77303 30.9314C1.74802 30.9314 1.72756 29.8763 1.72756 28.5868V26.2422L1.53183 26.0883C1.31724 25.9195 1.06571 25.9384 0.84186 26.1401C0.724297 26.2461 0.715332 26.5339 0.715332 30.2044C0.715332 33.4695 0.733986 34.2262 0.822989 34.5679C1.19831 36.0089 2.47038 37.196 3.89661 37.4363C4.22984 37.4924 8.9972 37.5096 20.2857 37.4951L36.2048 37.4747L36.409 37.3234C36.7532 37.0684 36.9385 36.7308 36.9385 36.359C36.9385 36.0779 36.7926 35.7223 36.032 34.1504L35.1255 32.2769L36.1865 30.1039C37.0188 28.399 37.2538 27.853 37.2773 27.5693C37.3058 27.2255 37.2538 27.0982 36.2152 24.9684L35.123 22.7288L36.1857 20.558C37.0182 18.8572 37.255 18.3087 37.2789 18.0255C37.3081 17.6812 37.2576 17.5576 36.2164 15.425L35.1233 13.186L36.0301 11.3216C36.5288 10.2962 36.9553 9.33536 36.9779 9.18642C37.0311 8.83532 36.7794 8.32841 36.4397 8.10269C36.195 7.94008 36.1829 7.93943 33.318 7.93943H30.4418L30.292 8.12994C30.2096 8.23471 30.1421 8.37671 30.1421 8.44554C30.1421 8.51437 30.2096 8.65637 30.292 8.76114L30.4418 8.95165H33.1436C34.9158 8.95165 35.8612 8.97725 35.8913 9.02598C35.9166 9.06683 35.5281 9.94566 35.028 10.9789C34.2697 12.5455 34.1187 12.9125 34.1187 13.1886C34.1187 13.4668 34.2858 13.8653 35.1671 15.688C35.7437 16.8807 36.2155 17.9056 36.2155 17.9658C36.2155 18.0259 35.7437 19.0496 35.1671 20.2405C34.2831 22.0664 34.1187 22.4582 34.1187 22.7386C34.1187 23.0191 34.2831 23.4109 35.1671 25.2367C35.7437 26.4278 36.2155 27.451 36.2155 27.5104C36.2155 27.5699 35.7549 28.5673 35.192 29.7269C34.3849 31.3895 34.1615 31.9144 34.135 32.2104C34.1029 32.5707 34.1377 32.6605 35.0139 34.4706C35.5157 35.5073 35.9262 36.3715 35.9262 36.3909C35.9262 36.4104 31.8426 36.4263 26.8515 36.4263H17.7769L18.0932 36.038C18.2671 35.8243 18.4943 35.4746 18.5979 35.2607C19.0313 34.3662 19.0077 35.1623 19.0077 21.4808V8.95165H23.3096C27.5152 8.95165 27.6148 8.9484 27.7562 8.80705C27.9249 8.6383 27.9445 8.31612 27.7982 8.11592C27.6991 7.98042 27.5463 7.97435 23.3697 7.93943L19.0438 7.90328L19.0057 5.77038C18.9681 3.66777 18.9648 3.63054 18.7731 3.14727C18.3755 2.14488 17.7553 1.44905 16.8226 0.958919C15.9348 0.492357 15.9616 0.494092 9.82534 0.501684C6.74507 0.505516 4.13838 0.538341 3.94244 0.575793ZM14.7232 30.8549C16.6378 31.1319 17.7171 33.1564 16.8716 34.8847C16.6169 35.4053 16.1032 35.8992 15.5374 36.1673L15.0672 36.3901H9.53614H4.00506L3.5317 36.1658C2.44132 35.6491 1.79147 34.667 1.79053 33.5342C1.78937 32.2292 2.82524 31.0523 4.14568 30.8585C4.67522 30.7807 14.188 30.7775 14.7232 30.8549ZM3.78663 31.8249C3.35796 32.0245 3.01192 32.3518 2.79249 32.7654C2.66726 33.0012 2.63386 33.1862 2.63386 33.6427C2.63386 34.3397 2.77976 34.6676 3.28956 35.1164C3.88938 35.6443 3.72952 35.631 9.4441 35.631H14.5315L14.709 35.4535C15.007 35.1555 14.916 34.7659 14.5157 34.6263C14.3569 34.571 12.7546 34.5464 9.30152 34.5464C3.6891 34.5464 4.03101 34.5806 3.74636 33.9925C3.62114 33.7339 3.6108 33.6454 3.67695 33.3997C3.77557 33.0337 4.09558 32.7607 4.49346 32.7034C4.66228 32.6791 7.01425 32.669 9.72014 32.681C14.2866 32.7012 14.6539 32.7119 14.8355 32.8309C14.9431 32.9014 15.0311 32.9909 15.0311 33.0298C15.0311 33.0743 14.1615 33.1004 12.678 33.1004H10.3249L10.1474 33.2779C9.93459 33.4908 9.9202 33.746 10.1081 33.9781L10.2462 34.1488L12.5483 34.1721C14.0514 34.1872 14.9783 34.1674 15.219 34.1151C15.9639 33.953 16.3203 33.2283 15.9937 32.54C15.8653 32.2694 15.3957 31.8931 15.0082 31.7502C14.8402 31.6883 13.342 31.6641 9.46383 31.6606L4.14966 31.6558L3.78663 31.8249Z" fill="#BF1E77"/>
</svg>
