<svg width="55" height="56" viewBox="0 0 55 56" fill="none" xmlns="http://www.w3.org/2000/svg">
<path fill-rule="evenodd" clip-rule="evenodd" d="M8.65055 0.130588C8.25823 0.354161 8.22789 0.47158 8.22594 1.77959L8.22412 3.02382L5.69596 3.06691C3.21508 3.10916 3.15477 3.11638 2.4687 3.45309C1.57903 3.88983 0.781108 4.69106 0.34322 5.58732L0 6.28987V29.492V52.6942L0.326528 53.3943C0.783789 54.3747 1.61156 55.2212 2.5301 55.6474L3.28965 56H20.7735H38.2574L38.9488 55.6743C39.9166 55.2184 40.6816 54.4658 41.151 53.508L41.547 52.7002L41.6079 48.3908L41.6689 44.0814L47.639 40.1498C51.4713 37.626 53.773 36.0332 54.0672 35.7017C55.7415 33.8147 55.0764 30.7775 52.7562 29.7149C51.9311 29.337 50.5567 29.3257 49.7711 29.6904C49.4696 29.8303 47.541 31.0551 45.4855 32.4121C43.4299 33.769 41.7176 34.8793 41.6804 34.8793C41.6433 34.8793 41.5981 28.4468 41.5799 20.5846L41.547 6.28987L41.2789 5.71196C40.9666 5.0394 40.1521 4.11046 39.5249 3.7118C38.6362 3.14674 37.9756 3.04524 35.1892 3.04524H32.5919L32.59 1.79025C32.588 0.450153 32.5595 0.345346 32.135 0.120793C31.9237 0.0088841 31.798 0.0088841 31.5867 0.120793C31.1622 0.345346 31.1337 0.450153 31.1316 1.79025L31.1298 3.04524H28.0229H24.916L24.9142 1.79025C24.9121 0.450153 24.8836 0.345346 24.4591 0.120793C24.2479 0.0088841 24.1221 0.0088841 23.9109 0.120793C23.4864 0.345346 23.4579 0.450153 23.4558 1.79025L23.454 3.04524H20.408H17.362L17.3602 1.79025C17.3581 0.450153 17.3296 0.345346 16.9051 0.120793C16.6939 0.0088841 16.5681 0.0088841 16.3569 0.120793C15.9324 0.345346 15.9039 0.450153 15.9018 1.79025L15.9 3.04524H12.7931H9.68618L9.68435 1.79025C9.68228 0.454684 9.65292 0.344856 9.23733 0.125078C8.92067 -0.0424178 8.95466 -0.0427851 8.65055 0.130588ZM8.22412 5.41957C8.22412 6.25559 8.20328 6.32991 7.94998 6.39492C7.49162 6.51246 6.79946 7.17559 6.51192 7.7726C5.77516 9.30186 6.56723 11.0938 8.18939 11.5676C10.8237 12.3372 12.8205 9.22424 11.0147 7.16273C10.7476 6.85774 10.3394 6.53928 10.1076 6.45504L9.68618 6.30187V5.40819V4.51451H12.7931H15.9V5.41957C15.9 6.28828 15.8875 6.3277 15.5882 6.40313C15.4166 6.44647 15.0359 6.70457 14.742 6.97687C13.4287 8.19343 13.621 10.2885 15.1346 11.253C16.5514 12.156 18.3334 11.6224 19.1153 10.061C19.3975 9.49728 19.3696 8.38553 19.0568 7.73648C18.7844 7.17069 18.0846 6.51001 17.6362 6.39492C17.3829 6.32991 17.362 6.25559 17.362 5.41957V4.51451H20.408H23.454L23.4482 5.40219L23.4426 6.28987L22.9304 6.54295C21.541 7.22959 21.0378 9.16681 21.9128 10.4609C23.2283 12.4062 26.1637 11.9518 26.8144 9.70199C26.9841 9.11563 26.9936 8.89904 26.8736 8.36006C26.7022 7.59029 25.973 6.68596 25.3375 6.45504L24.916 6.30187V5.40819V4.51451H28.0229H31.1298V5.40819V6.30187L30.7229 6.44977C30.0774 6.68437 29.4436 7.40933 29.2257 8.1622C28.983 9.0014 29.0796 9.69416 29.5415 10.4261C30.685 12.2381 33.3197 12.0729 34.3074 10.1275C34.6283 9.49544 34.619 8.42618 34.2866 7.73648C34.0142 7.17069 33.3145 6.51001 32.866 6.39492C32.6127 6.32991 32.5919 6.25559 32.5919 5.41957V4.51451H35.1059C36.741 4.51451 37.7952 4.56716 38.1214 4.66498C38.8054 4.87019 39.8368 5.89047 40.0116 6.53475C40.1041 6.87549 40.1448 11.427 40.1451 21.4895L40.1459 35.9547L38.7752 36.8429C38.0214 37.3314 37.336 37.8163 37.2522 37.9203C36.8855 38.376 37.2102 39.0422 37.7991 39.0422C38.0088 39.0422 39.9601 37.8238 43.5924 35.4247C46.6049 33.435 49.0814 31.8235 49.096 31.8433C49.4221 32.2899 49.8919 33.0502 49.8886 33.126C49.8849 33.2084 33.4942 44.0909 31.9854 45.0127L31.5319 45.2898L31.0934 44.6261L30.6549 43.9623L32.4799 42.7573C34.3875 41.4977 34.5834 41.2766 34.3156 40.6861C34.0475 40.0945 33.5738 40.2674 31.2649 41.7993L29.146 43.2052H23.4368C17.8899 43.2052 17.7206 43.2121 17.4839 43.45C17.3498 43.5847 17.2402 43.8051 17.2402 43.9398C17.2402 44.0745 17.3498 44.2949 17.4839 44.4295C17.7201 44.667 17.8899 44.6744 23.03 44.6744H28.3325L28.0838 45.1642L27.8352 45.6539H22.7814C17.8899 45.6539 17.7197 45.6618 17.4839 45.8988C17.3498 46.0335 17.2402 46.2539 17.2402 46.3886C17.2402 46.5232 17.3498 46.7436 17.4839 46.8783C17.719 47.1146 17.8899 47.1232 22.3574 47.1232C24.9038 47.1232 26.9873 47.1555 26.9873 47.1952C26.9873 47.2347 26.7954 47.6118 26.5608 48.0334C26.0557 48.941 26.0187 49.3677 26.4221 49.6333C26.6729 49.7985 27.1284 49.8105 29.9899 49.728L33.2703 49.6332L36.644 47.3987C38.4996 46.1698 40.0496 45.1642 40.0885 45.1642C40.1273 45.1642 40.1425 46.8033 40.1221 48.8067C40.0868 52.2675 40.0718 52.4738 39.822 52.939C39.5143 53.512 39.037 53.9831 38.4401 54.3025C38.0308 54.5217 37.3308 54.5321 20.9218 54.5631L3.82988 54.5953L3.22568 54.3341C2.505 54.0225 1.8768 53.3613 1.59816 52.6212C1.41101 52.1238 1.39786 50.3114 1.42868 29.3084L1.46207 6.53475L1.79761 5.96112C1.98207 5.64572 2.30482 5.26469 2.51463 5.11458C3.23531 4.59887 3.66528 4.52553 6.00056 4.51989L8.22412 4.51451V5.41957ZM9.78974 8.00732C10.5093 8.61584 10.3512 9.73738 9.49514 10.0969C8.59585 10.4745 7.73676 9.91785 7.73676 8.95744C7.73676 7.84141 8.93675 7.28603 9.78974 8.00732ZM17.4932 8.0558C18.552 9.1198 17.1427 10.845 15.9039 10.0014C14.8238 9.26599 15.2958 7.69792 16.5972 7.69792C17.0315 7.69792 17.2068 7.76795 17.4932 8.0558ZM25.0196 8.00732C25.4789 8.39582 25.5942 8.88655 25.3589 9.45246C24.8281 10.7294 22.9666 10.3443 22.9666 8.95744C22.9666 7.84141 24.1666 7.28603 25.0196 8.00732ZM32.7231 8.0558C33.7108 9.04841 32.5057 10.7372 31.2685 10.0943C30.0319 9.4516 30.4481 7.70783 31.8398 7.70061C32.2621 7.69841 32.4377 7.76917 32.7231 8.0558ZM2.98505 8.43255C2.80217 8.61633 2.74137 8.84064 2.74137 9.33186C2.74137 10.067 2.97177 10.3916 3.4936 10.3916C3.96951 10.3916 4.20344 10.0353 4.20344 9.31056C4.20344 8.61755 3.92357 8.18767 3.4724 8.18767C3.33838 8.18767 3.11907 8.29786 2.98505 8.43255ZM3.16781 11.395C3.03379 11.4714 2.8838 11.5937 2.83458 11.6668C2.78536 11.7399 2.7443 13.5129 2.7432 15.6068C2.74149 19.1412 2.75733 19.4286 2.96421 19.6167C3.25846 19.8844 3.75068 19.8742 4.00179 19.5954C4.18041 19.3972 4.20319 18.9383 4.20161 15.5855C4.20051 13.5033 4.15945 11.739 4.11023 11.6649C4.03018 11.5445 3.54758 11.2429 3.44999 11.2523C3.42879 11.2544 3.30183 11.3186 3.16781 11.395ZM7.96935 16.1335C5.11016 17.0528 3.71645 20.3474 5.04218 23.0536C5.50407 23.9965 6.5018 24.9752 7.46226 25.4275C8.08473 25.7207 8.30709 25.7576 9.44884 25.7576C10.6903 25.7576 10.7664 25.7417 11.6645 25.2958C15.6594 23.3116 15.1807 17.4742 10.9135 16.1396C9.97396 15.8457 8.87157 15.8434 7.96935 16.1335ZM11.1417 17.8073C13.3134 18.9951 13.5559 22.1341 11.5914 23.6262C10.8795 24.1669 10.3157 24.35 9.36745 24.3484C6.28225 24.3432 4.83127 20.3869 7.14706 18.2945C7.93536 17.5823 8.54918 17.3649 9.63342 17.4143C10.3038 17.4447 10.6379 17.5317 11.1417 17.8073ZM17.4839 18.9623C17.3498 19.097 17.2402 19.3174 17.2402 19.452C17.2402 19.5867 17.3498 19.8071 17.4839 19.9418C17.7234 20.1825 17.8899 20.1867 27.1512 20.1867C36.1259 20.1867 36.5844 20.176 36.7764 19.9627C37.0428 19.667 37.0326 19.1724 36.7552 18.92C36.552 18.7352 35.7081 18.7174 27.13 18.7174C17.89 18.7174 17.7233 18.7217 17.4839 18.9623ZM9.99078 19.9418C9.49514 20.4132 9.04836 20.7989 8.99779 20.7989C8.94723 20.7989 8.72902 20.6267 8.513 20.4162C7.86896 19.7889 7.12757 19.9586 7.12757 20.7332C7.12757 21.0578 7.26561 21.2605 7.90892 21.8813C8.41345 22.3682 8.79176 22.6354 8.97647 22.6354C9.36014 22.6354 11.8838 20.2339 11.8811 19.8713C11.8789 19.5679 11.4013 19.0847 11.1035 19.0847C10.9872 19.0847 10.4864 19.4704 9.99078 19.9418ZM17.4839 21.4111C17.3498 21.5457 17.2402 21.7661 17.2402 21.9008C17.2402 22.0355 17.3498 22.2559 17.4839 22.3906C17.7199 22.6277 17.8899 22.6354 22.8868 22.6354C27.7303 22.6354 28.0584 22.6217 28.2477 22.4115C28.514 22.1158 28.5039 21.6212 28.2265 21.3688C28.0266 21.187 27.4757 21.1662 22.8656 21.1662C17.8899 21.1662 17.7199 21.1739 17.4839 21.4111ZM7.96935 28.3773C5.11016 29.2967 3.71645 32.5913 5.04218 35.2974C5.50407 36.2403 6.5018 37.2191 7.46226 37.6714C8.08473 37.9645 8.30709 38.0015 9.44884 38.0015C10.6903 38.0015 10.7664 37.9856 11.6645 37.5397C15.6594 35.5554 15.1807 29.718 10.9135 28.3835C9.97396 28.0896 8.87157 28.0873 7.96935 28.3773ZM11.1417 30.0512C13.3134 31.239 13.5559 34.3779 11.5914 35.8701C10.8795 36.4108 10.3157 36.5938 9.36745 36.5922C6.28225 36.5871 4.83127 32.6307 7.14706 30.5384C7.93536 29.8261 8.54918 29.6088 9.63342 29.6582C10.3038 29.6885 10.6379 29.7756 11.1417 30.0512ZM52.2055 31.1143C52.5006 31.2659 52.9039 31.5943 53.1016 31.8442C53.6925 32.5908 53.6823 33.8285 53.0786 34.6166L52.8578 34.9048L51.6674 33.0939C51.0128 32.098 50.4514 31.2155 50.4198 31.1328C50.2825 30.7733 51.5165 30.7606 52.2055 31.1143ZM17.4839 31.2062C17.3498 31.3408 17.2402 31.5612 17.2402 31.6959C17.2402 31.8306 17.3498 32.051 17.4839 32.1857C17.7234 32.4264 17.8899 32.4305 27.1512 32.4305C36.1259 32.4305 36.5844 32.4199 36.7764 32.2066C37.0428 31.9109 37.0326 31.4163 36.7552 31.1639C36.552 30.979 35.7081 30.9613 27.13 30.9613C17.89 30.9613 17.7233 30.9656 17.4839 31.2062ZM9.99078 32.1857C9.49514 32.6571 9.04836 33.0427 8.99779 33.0427C8.94723 33.0427 8.72902 32.8706 8.513 32.6601C7.86896 32.0327 7.12757 32.2024 7.12757 32.9771C7.12757 33.3017 7.26561 33.5043 7.90892 34.1252C8.41345 34.612 8.79176 34.8793 8.97647 34.8793C9.36014 34.8793 11.8838 32.4778 11.8811 32.1151C11.8789 31.8117 11.4013 31.3286 11.1035 31.3286C10.9872 31.3286 10.4864 31.7143 9.99078 32.1857ZM17.4839 33.6549C17.3498 33.7896 17.2402 34.01 17.2402 34.1447C17.2402 34.2794 17.3498 34.4998 17.4839 34.6344C17.7199 34.8716 17.8899 34.8793 22.8868 34.8793C27.7303 34.8793 28.0584 34.8656 28.2477 34.6554C28.514 34.3597 28.5039 33.865 28.2265 33.6127C28.0266 33.4309 27.4757 33.4101 22.8656 33.4101C17.8899 33.4101 17.7199 33.4178 17.4839 33.6549ZM51.1895 35.0648C51.4348 35.4362 51.6136 35.7587 51.5868 35.7813C51.5598 35.8041 47.4259 38.5337 42.4003 41.8474L33.2626 47.8722L33.0155 47.5608C32.8797 47.3895 32.674 47.0887 32.5585 46.8923L32.3486 46.535L41.5168 40.4724C46.5592 37.1379 50.6981 34.4052 50.7142 34.3996C50.7302 34.3941 50.9441 34.6935 51.1895 35.0648ZM7.96935 40.6212C5.11016 41.5406 3.71645 44.8352 5.04218 47.5413C5.50407 48.4842 6.5018 49.463 7.46226 49.9153C8.08473 50.2084 8.30709 50.2454 9.44884 50.2454C10.6903 50.2454 10.7664 50.2295 11.6645 49.7835C15.6594 47.7993 15.1807 41.9619 10.9135 40.6273C9.97396 40.3335 8.87157 40.3311 7.96935 40.6212ZM11.1417 42.2951C13.3134 43.4828 13.5559 46.6218 11.5914 48.114C10.8795 48.6547 10.3157 48.8377 9.36745 48.8361C6.28225 48.831 4.83127 44.8746 7.14706 42.7822C7.93536 42.07 8.54918 41.8527 9.63342 41.902C10.3038 41.9324 10.6379 42.0195 11.1417 42.2951ZM9.99078 44.4295C9.49514 44.9009 9.04836 45.2866 8.99779 45.2866C8.94723 45.2866 8.72902 45.1145 8.513 44.904C7.86896 44.2766 7.12757 44.4463 7.12757 45.221C7.12757 45.5456 7.26561 45.7482 7.90892 46.3691C8.41345 46.8559 8.79176 47.1232 8.97647 47.1232C9.36014 47.1232 11.8838 44.7217 11.8811 44.359C11.8789 44.0556 11.4013 43.5725 11.1035 43.5725C10.9872 43.5725 10.4864 43.9581 9.99078 44.4295ZM30.6996 46.7086C31.2113 47.4906 31.6134 48.1453 31.5932 48.1633C31.5728 48.1813 30.7794 48.22 29.8299 48.2493L28.1037 48.3025L28.5959 47.3149C29.1217 46.26 29.6659 45.2866 29.73 45.2866C29.7514 45.2866 30.1877 45.9265 30.6996 46.7086Z" fill="#BF1E77"/>
</svg>
