<svg width="48" height="48" viewBox="0 0 48 48" fill="none" xmlns="http://www.w3.org/2000/svg">
<path fill-rule="evenodd" clip-rule="evenodd" d="M4.45397 0.142834C3.84245 0.40919 3.76006 0.605181 1.83954 6.36595L0 11.8835L0.0242094 29.4892L0.0484188 47.095L0.241906 47.354C0.348315 47.4966 0.551937 47.7001 0.694472 47.8065L0.953645 48H19.268C36.7987 48 37.6166 47.9925 38.38 47.8248C40.8106 47.2912 42.7517 46.2332 44.4914 44.4938C46.2332 42.7522 47.3 40.7937 47.8197 38.3834C48.0601 37.2683 48.0601 34.8074 47.8197 33.6924C47.3 31.2821 46.2332 29.3235 44.4914 27.5819C42.75 25.8408 40.7948 24.776 38.38 24.2535C37.308 24.0215 34.7157 24.0197 33.6882 24.2502C32.5732 24.5003 31.8237 24.7773 31.6707 24.9956C31.3853 25.4032 31.5957 25.982 32.086 26.1376C32.1889 26.1702 32.5808 26.1053 32.9569 25.9934C36.7267 24.8708 40.6824 25.8641 43.446 28.6272C46.6331 31.8139 47.4347 36.5532 45.4695 40.5912C42.2804 47.1439 33.7392 48.5644 28.5759 43.4009C25.4013 40.226 24.6267 35.3219 26.6648 31.3C27.4182 29.8132 28.6086 28.4277 29.9601 27.4647C30.8329 26.8427 30.9661 26.5432 30.5848 26.0587C30.2704 25.6589 29.864 25.7195 29.0402 26.2888C24.7367 29.2635 22.9252 35.1336 24.7623 40.1517C25.5956 42.4281 27.3371 44.6494 29.3249 45.9714C29.7378 46.2459 30.0932 46.4875 30.1147 46.5082C30.1362 46.5289 23.7073 46.5458 15.8284 46.5458H1.50286V29.6581V12.7704H8.25898H15.0151V15.9176V19.0649L15.2455 19.2952L15.4757 19.5255H21.0205H26.5653L26.7956 19.2952L27.026 19.0649V15.9176V12.7704H33.7821H40.5382V18.1693V23.5683L40.7686 23.7985C41.0732 24.1033 41.5045 24.1033 41.8092 23.7985L42.0396 23.5683V17.7238V11.8791L40.2008 6.36369C38.2691 0.569529 38.1986 0.402904 37.5663 0.138799C37.1171 -0.0488415 4.88523 -0.0449949 4.45397 0.142834ZM15.6561 2.4132C15.6298 3.29717 15.6342 3.31875 15.8904 3.53904C16.2193 3.82182 16.5292 3.82435 16.8518 3.54692C17.085 3.34633 17.1072 3.26274 17.1513 2.42108L17.1989 1.51196H18.7343H20.2698V6.39062V11.2693H18.4401H16.6103L16.6088 11.0113C16.608 10.8693 16.679 9.64929 16.7666 8.30005C16.9163 5.99432 16.9163 5.8322 16.7669 5.60412C16.474 5.15726 15.8455 5.18559 15.5454 5.6592C15.4462 5.81578 15.3629 6.61157 15.2405 8.57195L15.0721 11.2693H8.43576H1.79929L3.38669 6.5079C4.25973 3.88918 4.99399 1.69378 5.01839 1.62923C5.05311 1.53729 6.21093 1.51196 10.3728 1.51196H15.6829L15.6561 2.4132ZM25.1325 6.22644C25.3011 8.81945 25.4372 11.0148 25.4349 11.1051C25.4311 11.2557 25.2795 11.2693 23.601 11.2693H21.7712V6.39062V1.51196H23.2986H24.826L25.1325 6.22644ZM38.6226 6.41408L40.2415 11.2693H33.6077H26.9739L26.6674 6.55481C26.4988 3.9618 26.3627 1.76612 26.365 1.67539C26.3689 1.51965 26.6675 1.51177 31.6864 1.53466L37.0035 1.55887L38.6226 6.41408ZM25.5246 15.3974V18.0244H21.0205H16.5165V15.3974V12.7704H21.0205H25.5246V15.3974ZM38.246 29.6816C38.1149 29.7977 37.1812 31.0537 36.1711 32.4727C35.161 33.8917 34.2973 35.066 34.2518 35.0821C34.2064 35.0982 33.6878 34.7499 33.0994 34.308C32.0034 33.4849 31.6791 33.3594 31.3351 33.625C31.2536 33.6879 30.5463 34.5959 29.7633 35.6427C28.1829 37.7558 28.1041 37.942 28.5977 38.4002C29.0919 38.8591 34.9475 43.1994 35.2018 43.2954C35.3807 43.3629 35.5257 43.3611 35.683 43.2895C35.8181 43.2279 37.3396 41.1825 39.4899 38.1714C43.4181 32.6709 43.3603 32.7736 42.8137 32.2702C42.5804 32.0553 40.1968 30.3389 39.2731 29.7206C38.8168 29.4151 38.5579 29.4053 38.246 29.6816ZM40.3036 32.2821C40.7681 32.6101 41.1858 32.9115 41.232 32.9519C41.3104 33.0202 35.345 41.4795 35.2184 41.4795C35.1866 41.4795 34.0274 40.6305 32.6424 39.5928C31.0832 38.4246 30.1484 37.6653 30.1878 37.5991C30.2229 37.5402 30.6244 36.9967 31.0801 36.3914L31.9087 35.2906L33.0387 36.1334C34.2368 37.0268 34.5199 37.13 34.8725 36.8015C34.9756 36.7054 35.9211 35.4193 36.9738 33.9434L38.8876 31.2601L39.1734 31.4728C39.3305 31.5898 39.8391 31.954 40.3036 32.2821ZM3.23458 37.0188C3.08933 37.1639 3.00422 37.3563 3.00422 37.539C3.00422 37.7218 3.08933 37.9141 3.23458 38.0593L3.46486 38.2896H8.25898H13.0531L13.2834 38.0593C13.4286 37.9141 13.5137 37.7218 13.5137 37.539C13.5137 37.3563 13.4286 37.1639 13.2834 37.0188L13.0531 36.7885H8.25898H3.46486L3.23458 37.0188ZM3.23458 40.021C3.08933 40.1662 3.00422 40.3585 3.00422 40.5413C3.00422 40.724 3.08933 40.9164 3.23458 41.0615L3.46486 41.2918H8.25898H13.0531L13.2834 41.0615C13.4286 40.9164 13.5137 40.724 13.5137 40.5413C13.5137 40.3585 13.4286 40.1662 13.2834 40.021L13.0531 39.7907H8.25898H3.46486L3.23458 40.021ZM3.23458 43.0233C3.08933 43.1684 3.00422 43.3608 3.00422 43.5435C3.00422 43.7263 3.08933 43.9186 3.23458 44.0638L3.46486 44.2941H8.25898H13.0531L13.2834 44.0638C13.4286 43.9186 13.5137 43.7263 13.5137 43.5435C13.5137 43.3608 13.4286 43.1684 13.2834 43.0233L13.0531 42.793H8.25898H3.46486L3.23458 43.0233Z" fill="#BF1E77"/>
</svg>
