<svg width="71" height="30" viewBox="0 0 71 30" fill="none" xmlns="http://www.w3.org/2000/svg">
<g id="sdek">
<path id="Vector" d="M7.41472 21.8798C4.39146 21.8798 3.01549 22.7132 2.47285 24.4574L0.748047 30H59.5078C62.531 30 63.907 29.1667 64.4496 27.4225L66.1744 21.8798H7.41472ZM14.4884 14.1473H11.5814C7.0465 14.1473 10.3411 4.5155 14.1589 4.5155H18.7519C19.4884 4.5155 20.7868 4.65116 21.4264 2.82946L22.4147 0H16.1163C12.7054 0 10.0504 1.20155 8.13177 3.21705C4.81782 6.66667 3.69378 12.0543 4.48836 14.6318C5.24417 17.0155 7.29844 18.5853 10.5155 18.624L13.0155 18.6434H16.0969L16.8527 16.376C17.4147 14.7674 16.155 14.1473 14.4884 14.1473ZM49.876 10.155L50.8256 7.07364H40.6899C39.0039 7.07364 38.2481 7.53876 37.9574 8.50775L37.0078 11.5891H47.1434C48.8295 11.5891 49.5853 11.124 49.876 10.155ZM35.4961 15.5814L34.5465 18.6628H44.6822C46.3488 18.6628 47.124 18.1977 47.4147 17.2287L48.3643 14.1473H38.2287C36.562 14.1473 35.8062 14.6124 35.4961 15.5814ZM52.2403 3.10078L53.1899 0.0193798H43.0543C41.3682 0.0193798 40.6124 0.484496 40.3217 1.45349L39.3721 4.53488H49.5078C51.1744 4.53488 51.9302 4.06977 52.2403 3.10078ZM36.9302 3.72093C36.5039 0.852713 34.9729 0.0193798 31.2519 0.0193798H24.469L20.5155 11.5891H23.0155C24.5077 11.5891 25.2636 11.6085 26.0581 9.47674L27.7054 4.5155H30.2248C32.376 4.5155 31.8915 7.2093 30.8062 9.82558C29.8372 12.1318 28.1512 14.1667 26.1163 14.1667H21.9108C20.2248 14.1667 19.4496 14.6318 19.1395 15.6008L18.093 18.6822H21.1744L24.1977 18.6628C26.8721 18.6434 29.062 18.4496 31.6202 16.1434C34.3333 13.6822 37.4729 7.36434 36.9302 3.72093ZM71 0H65.1279L59.6047 5.87209C58.9651 6.55039 58.3062 7.22868 57.6667 8.02326H57.6085L60.3605 0H55.5737L49.1202 18.6628H53.907L55.9613 12.7907L58.093 10.9884L59.7791 16.2984C60.3023 17.9457 60.845 18.6628 62.0078 18.6628H65.6706L61.9109 8.23643L71 0Z" fill="#00B33C"/>
<path id="Vector_2" d="M7.14373 26.4901V28.0211H6.29102V23.7769H7.97706C8.46156 23.7769 8.84916 23.8932 9.12047 24.1451C9.39179 24.397 9.54683 24.7265 9.54683 25.1335C9.54683 25.5405 9.41117 25.8699 9.12047 26.1219C8.84916 26.3738 8.46156 26.4901 7.97706 26.4901H7.14373ZM7.14373 25.8312H7.97706C8.20962 25.8312 8.38404 25.773 8.5197 25.6374C8.63598 25.5017 8.69412 25.3467 8.69412 25.1529C8.69412 24.9397 8.63598 24.7846 8.5197 24.649C8.40342 24.5133 8.20962 24.4552 7.97706 24.4552H7.14373V25.8312ZM11.9693 27.1102H10.4771L10.1864 28.0211H9.33365L10.7871 23.7769H11.6592L13.1127 28.0211H12.26L11.9693 27.1102ZM10.6902 26.4319H11.7561L11.2329 24.7653H11.2135L10.6902 26.4319ZM16.2329 24.4358H14.353V25.2691H15.0895C15.574 25.2691 15.9616 25.4048 16.2523 25.6567C16.543 25.9087 16.6786 26.2381 16.6786 26.6451C16.6786 27.0521 16.543 27.3815 16.2523 27.6335C15.9616 27.8854 15.574 28.0211 15.0895 28.0211H13.4616V23.7769H16.2329V24.4358ZM14.353 25.9281V27.3622H15.0895C15.322 27.3622 15.5158 27.2846 15.6321 27.149C15.7484 27.0133 15.8259 26.8389 15.8259 26.6257C15.8259 26.4319 15.7678 26.2575 15.6321 26.1219C15.4964 25.9862 15.322 25.9087 15.0895 25.9087H14.353V25.9281ZM20.6709 26.2769C20.6709 26.8001 20.5158 27.2265 20.1864 27.5753C19.8569 27.9242 19.4306 28.0792 18.9073 28.0792C18.384 28.0792 17.9577 27.9048 17.6282 27.5753C17.2988 27.2459 17.1437 26.8001 17.1437 26.2769V25.5211C17.1437 24.9978 17.2988 24.5715 17.6282 24.2226C17.9577 23.8738 18.384 23.7188 18.9073 23.7188C19.4306 23.7188 19.8569 23.8932 20.1864 24.2226C20.5158 24.5521 20.6902 24.9978 20.6902 25.5211V26.2769H20.6709ZM19.8181 25.5211C19.8181 25.1916 19.7406 24.9203 19.5662 24.7071C19.3918 24.4939 19.1786 24.397 18.8879 24.397C18.5972 24.397 18.3647 24.4939 18.2096 24.7071C18.0546 24.9203 17.9771 25.1916 17.9771 25.5211V26.2963C17.9771 26.6257 18.0546 26.9164 18.2096 27.1102C18.3647 27.3234 18.5972 27.4203 18.8879 27.4203C19.1786 27.4203 19.4112 27.3234 19.5662 27.1102C19.7212 26.897 19.8181 26.6257 19.8181 26.2963V25.5211ZM24.1592 24.4358H22.9577V28.0211H22.105V24.4358H20.9034V23.7769H24.1399V24.4358H24.1592ZM26.6205 27.1102H25.1282L24.8375 28.0211H23.9848L25.4383 23.7769H26.3104L27.7639 28.0211H26.9112L26.6205 27.1102ZM25.3414 26.4319H26.4073L25.884 24.7653H25.8647L25.3414 26.4319ZM30.7871 26.1606H29.0236V27.3622H31.0778V28.0211H28.1709V23.7769H31.0778V24.4358H29.0236V25.5017H30.7871V26.1606ZM32.7057 23.7769L33.791 26.897H33.8104L34.8957 23.7769H36.0003V28.0211H35.1476V26.7614L35.2251 24.8815H35.2057L34.0623 28.0211H33.5003L32.3763 24.9009H32.3569L32.4344 26.7614V28.0211H31.5817V23.7769H32.7057ZM38.2871 28.0211V23.7769H39.7212C40.2251 23.7769 40.6127 23.8738 40.884 24.0676C41.1554 24.2614 41.3104 24.5521 41.3104 24.9397C41.3104 25.1335 41.2523 25.3079 41.1554 25.4629C41.0585 25.618 40.9034 25.7343 40.7096 25.8118C40.9616 25.8699 41.1554 25.9862 41.291 26.1606C41.4267 26.335 41.4848 26.5482 41.4848 26.7808C41.4848 27.1877 41.3492 27.4978 41.0778 27.711C40.8065 27.9242 40.4383 28.0211 39.9344 28.0211H38.2871ZM39.1399 25.5598H39.76C39.9926 25.5598 40.167 25.5211 40.2833 25.4242C40.3995 25.3273 40.4577 25.1916 40.4577 25.0172C40.4577 24.8234 40.3995 24.6684 40.2639 24.5908C40.1476 24.4939 39.9538 24.4552 39.7212 24.4552H39.1399V25.5598ZM39.1399 26.1412V27.3622H39.915C40.1476 27.3622 40.3026 27.304 40.4383 27.2071C40.574 27.1102 40.6127 26.9552 40.6127 26.7808C40.6127 26.5676 40.5546 26.4126 40.4577 26.2963C40.3608 26.18 40.2057 26.1412 39.9732 26.1412H39.1399ZM45.322 26.5676C45.3414 27.0327 45.2057 27.4009 44.915 27.6722C44.6243 27.9436 44.2368 28.0792 43.7135 28.0792C43.2096 28.0792 42.7833 27.9242 42.4732 27.5947C42.1631 27.2653 41.9887 26.8389 41.9887 26.335V25.5017C41.9887 24.9784 42.1437 24.5715 42.4538 24.242C42.7639 23.9125 43.1709 23.7381 43.6747 23.7381C44.198 23.7381 44.605 23.8738 44.8957 24.1451C45.1864 24.4164 45.3414 24.7846 45.322 25.2498V25.2691H44.4887C44.4887 24.9978 44.4306 24.7846 44.2949 24.6296C44.1592 24.4746 43.9461 24.4164 43.6747 24.4164C43.4228 24.4164 43.2096 24.5133 43.074 24.7265C42.9189 24.9397 42.8414 25.1916 42.8414 25.5211V26.3738C42.8414 26.7032 42.9189 26.9552 43.074 27.1684C43.229 27.3815 43.4422 27.4784 43.7135 27.4784C43.9848 27.4784 44.1786 27.4009 44.2949 27.2653C44.4306 27.1296 44.4887 26.9164 44.4887 26.6257H45.322V26.5676ZM48.5391 26.1606H46.7755V27.3622H48.8298V28.0211H45.9228V23.7769H48.8298V24.4358H46.7755V25.5017H48.5391V26.1606ZM52.1243 24.4358H50.2057V28.0211H49.353V23.7769H52.1243V24.4358ZM56.0585 29.0676H55.2833V28.0211H52.6864V29.0676H51.9112L51.853 27.3622H52.1825C52.3375 27.2265 52.4732 27.0327 52.5895 26.742C52.7057 26.4707 52.7639 26.0443 52.7833 25.5017L52.8995 23.7575H55.6515V27.3428H56.1554L56.0585 29.0676ZM53.5972 25.5211C53.5778 25.9474 53.5197 26.3157 53.4422 26.6064C53.3647 26.9164 53.2484 27.1684 53.1127 27.3622H54.7794V24.4358H53.6747L53.5972 25.5211ZM58.9461 27.1102H57.4538L57.1631 28.0211H56.3104L57.7639 23.7769H58.636L60.0895 28.0211H59.2368L58.9461 27.1102ZM57.667 26.4319H58.7329L58.2096 24.7653H58.1902L57.667 26.4319ZM61.3298 26.5482H60.4771V23.7769H61.3298V26.5482ZM61.3298 28.0211H60.4771V27.2846H61.3298V28.0211Z" fill="white"/>
</g>
</svg>
