<svg width="29" height="28" viewBox="0 0 29 28" fill="none" xmlns="http://www.w3.org/2000/svg">
<path fill-rule="evenodd" clip-rule="evenodd" d="M5.0317 0.134258C4.89744 0.268461 4.89744 0.268625 4.89744 1.44676V2.625H4.38398C3.97563 2.625 3.84674 2.64458 3.75437 2.7207C3.67048 2.78983 3.38807 3.56732 2.73658 5.52284L1.83495 8.22921V16.8021V25.375H1.56053C1.34042 25.375 1.17849 25.429 0.742466 25.6478C0.443491 25.7978 0.173226 25.9685 0.14189 26.027C0.109898 26.0869 0.0849609 26.4832 0.0849609 26.9325C0.0849609 27.708 0.0888984 27.7355 0.219218 27.8657L0.353421 28H7.08494H13.8165L13.9507 27.8657L14.0849 27.7315L14.2192 27.8657L14.3534 28H21.0849H27.8164L27.9506 27.8657C28.0813 27.7351 28.0849 27.7096 28.0849 26.9062C28.0849 25.9214 28.1114 25.9662 27.308 25.5938L26.7772 25.3477V18.8125V12.2773L27.308 12.0312C28.1114 11.6588 28.0849 11.7036 28.0849 10.7188C28.0849 9.91545 28.0813 9.88991 27.9506 9.75926L27.8164 9.625H21.0849H14.3534L14.2192 9.75926C14.0885 9.88991 14.0849 9.91545 14.0849 10.7188C14.0849 11.7036 14.0584 11.6588 14.8617 12.0312L15.3925 12.2773V18.8125V25.3477L14.8617 25.5938C14.5698 25.7291 14.2719 25.8978 14.1997 25.9687C14.0831 26.0831 14.0628 26.0876 14.0186 26.0085C13.9912 25.9595 13.7246 25.797 13.4263 25.6472C12.9913 25.429 12.8294 25.375 12.6093 25.375H12.3349V16.8021V8.22921L11.4333 5.52284C10.7818 3.56732 10.4994 2.78983 10.4155 2.7207C10.3231 2.64458 10.1942 2.625 9.78589 2.625H9.27243V1.44676C9.27243 0.268625 9.27243 0.268461 9.13817 0.134258L9.00397 0H7.08494H5.1659L5.0317 0.134258ZM8.39743 1.75V2.625H7.08494H5.77244V1.75V0.875H7.08494H8.39743V1.75ZM7.19431 3.63098C5.87405 4.18556 3.89787 4.97957 3.88059 4.96229C3.86413 4.94588 4.17863 3.95194 4.32164 3.56836C4.34127 3.51575 4.71025 3.50055 5.92114 3.5023L7.49509 3.50465L7.19431 3.63098ZM9.95531 3.87406C10.0078 4.03566 10.0291 4.186 10.0031 4.21072C9.97718 4.23533 9.64222 4.38402 9.25876 4.54125C8.87529 4.69848 8.56144 4.85455 8.56133 4.88813C8.56127 4.92177 8.62663 5.10344 8.70669 5.29195C8.87474 5.68794 8.77559 5.68673 9.70375 5.30441L10.3388 5.04279L10.6464 5.95306C10.8156 6.45367 10.9387 6.87958 10.9199 6.89948C10.8236 7.00153 5.48413 9.13899 5.40133 9.1087C4.9156 8.93091 2.98339 8.11563 2.98339 8.08845C2.98339 8.06909 4.05389 7.61578 5.36229 7.0811C6.67068 6.54637 7.74118 6.07977 7.74118 6.04423C7.74118 5.94016 7.48383 5.33739 7.43204 5.32011C7.40601 5.31147 6.45286 5.6869 5.31394 6.15442C4.17497 6.62195 3.23134 6.99273 3.21696 6.9784C3.20257 6.96402 3.25535 6.75998 3.33421 6.52493L3.4776 6.09766L6.63475 4.80555C8.37124 4.09484 9.80738 3.52882 9.82625 3.54774C9.84511 3.56661 9.90319 3.71345 9.95531 3.87406ZM11.3654 8.11087C11.4237 8.28565 11.4626 8.43648 11.4519 8.44594C11.4413 8.4554 10.5757 8.81388 9.52847 9.24252L7.62437 10.0219L7.16363 9.83713C6.91021 9.73547 6.70273 9.63927 6.70251 9.6233C6.70191 9.57819 11.0944 7.7752 11.1819 7.7846C11.2247 7.7892 11.307 7.9357 11.3654 8.11087ZM7.13339 10.7684L11.4599 12.5408V13.5992V14.6577L11.2548 14.5706C10.5786 14.2831 9.9657 14.0541 9.94027 14.0795C9.90286 14.117 9.59798 14.8376 9.6151 14.8482C9.62215 14.8526 10.0401 15.0237 10.5439 15.2286L11.4599 15.601V16.0068C11.4599 16.23 11.4414 16.4026 11.4189 16.3903C11.3964 16.378 9.42763 15.5712 7.04392 14.5974L2.70995 12.827V12.4233C2.70995 12.1214 2.72718 12.0268 2.77831 12.0483C3.58057 12.3856 6.34387 13.5078 6.37231 13.5078C6.41556 13.5078 6.72591 12.7469 6.69447 12.7178C6.68364 12.7078 5.78272 12.3354 4.69237 11.8902L2.70995 11.0807V10.0202C2.70995 9.42648 2.73128 8.96766 2.7584 8.97788C2.78509 8.98789 4.75384 9.79366 7.13339 10.7684ZM11.4599 10.4991V11.5919L11.2247 11.4971C9.67356 10.8723 8.83624 10.5222 8.83564 10.4983C8.83498 10.4716 11.3257 9.42381 11.4189 9.41161C11.4414 9.40866 11.4599 9.898 11.4599 10.4991ZM27.2099 10.7999V11.0997L26.9382 11.2374L26.6666 11.375H22.3445H18.0224V11.8121V12.2492L21.5758 12.2633L25.1291 12.2773L22.5891 13.3366C20.9405 14.0241 20.015 14.3831 19.9518 14.3596C19.8982 14.3397 19.0484 13.9884 18.0634 13.5788L16.2724 12.8342V12.5421V12.25H16.7099H17.1474V11.8125V11.375H16.3253C15.5553 11.375 15.4859 11.3663 15.2315 11.2374L14.9599 11.0997V10.7999V10.5H21.0849H27.2099V10.7999ZM25.8974 13.3077V13.7092L24.1064 14.4538C23.1213 14.8634 22.2721 15.2145 22.2193 15.2341C22.1223 15.2702 21.2489 14.9514 21.2489 14.88C21.2489 14.8533 25.7684 12.9313 25.8837 12.9089C25.8912 12.9075 25.8974 13.0869 25.8974 13.3077ZM7.71105 13.3711C7.66747 13.4764 7.59457 13.6524 7.54907 13.7623C7.50357 13.8722 7.47278 13.9671 7.48071 13.9733C7.52074 14.0043 8.61558 14.4375 8.65397 14.4375C8.69575 14.4375 9.01923 13.668 8.98663 13.6462C8.94359 13.6175 7.85247 13.1797 7.82387 13.1797C7.80539 13.1797 7.75464 13.2658 7.71105 13.3711ZM7.05393 15.5488L11.2612 17.2714L11.0461 17.3618C10.9278 17.4116 9.38596 18.0444 7.61983 18.7682L4.40859 20.0841L3.5576 19.7369L2.70662 19.3897L2.72193 18.7935L2.7373 18.1972L4.56932 17.4136C5.57693 16.9826 6.42546 16.6208 6.45488 16.6096C6.51269 16.5877 6.21885 15.8047 6.15279 15.8047C6.13092 15.8047 5.39696 16.1105 4.52174 16.4843C3.64653 16.8581 2.88085 17.1797 2.8202 17.1989C2.7175 17.2315 2.70995 17.21 2.70995 16.8837V16.5336L3.43456 16.2404C3.83306 16.0791 4.28653 15.8916 4.44223 15.8237L4.72529 15.7003L4.56899 15.3299C4.48308 15.1262 4.39077 14.9522 4.36391 14.9432C4.33706 14.9343 4.07085 15.0287 3.77231 15.1531C3.47377 15.2774 3.11256 15.4253 2.96972 15.4818L2.70995 15.5844V14.6769C2.70995 13.9724 2.72521 13.7759 2.77831 13.7978C2.81594 13.8134 4.73994 14.6013 7.05393 15.5488ZM21.1259 15.809L25.8974 17.7974V18.1963V18.5952L25.7196 18.5222C25.6219 18.4821 23.4563 17.5795 20.9072 16.5165L16.2724 14.5838V14.1793C16.2724 13.9569 16.2908 13.7851 16.3134 13.7976C16.336 13.8102 18.5016 14.7153 21.1259 15.809ZM25.8856 16.2927L25.87 16.8353L24.5985 16.3078C23.8992 16.0176 23.3273 15.7672 23.3276 15.7514C23.3279 15.7356 23.9001 15.4853 24.5991 15.1951L25.87 14.6677L25.8856 15.2088C25.8942 15.5065 25.8942 15.9942 25.8856 16.2927ZM21.1838 17.5796L25.8974 19.546V20.1628V20.7797L25.6376 20.6759C25.4947 20.6188 24.3694 20.1512 23.1367 19.6366C21.9041 19.1221 20.8696 18.7111 20.8378 18.7233C20.806 18.7354 20.715 18.9093 20.6356 19.1095L20.4911 19.4736L20.7744 19.5971C20.9301 19.665 22.1465 20.1735 23.4775 20.7269L25.8974 21.7332V23.0131C25.8974 24.0159 25.8825 24.2867 25.829 24.2642C25.7914 24.2484 25.3449 24.0607 24.8367 23.8471C24.3285 23.6334 23.9 23.4714 23.8844 23.4869C23.8463 23.525 23.5442 24.2436 23.5604 24.2577C23.5674 24.2638 24.0961 24.4856 24.7353 24.7504C25.41 25.03 25.8974 25.262 25.8974 25.3035C25.8974 25.3564 25.7836 25.375 25.4599 25.375H25.0224V25.8125V26.25H25.8445C26.6145 26.25 26.6838 26.2587 26.9382 26.3876L27.2099 26.5253V26.8251V27.125H21.0849H14.9599V26.8251V26.5253L15.2315 26.3876L15.5032 26.25H19.8253H24.1474V25.8125V25.375H23.26H22.3726L19.3234 24.1035L16.2741 22.832L16.2732 22.0282L16.2724 21.2243L16.4501 21.2979C16.5479 21.3383 17.9568 21.9259 19.581 22.6035C21.2052 23.2812 22.5655 23.8436 22.6039 23.8534C22.684 23.8737 23.0214 23.1306 22.9576 23.0745C22.9352 23.0548 21.4219 22.4168 19.5947 21.6569L16.2724 20.275V18.9998V17.7244L16.9902 18.0224C17.385 18.1862 17.7274 18.3203 17.751 18.3203C17.7992 18.3203 18.1073 17.5656 18.0722 17.5334C18.0599 17.5221 17.6499 17.3469 17.1611 17.1441L16.2724 16.7754V16.1551C16.2724 15.5787 16.2794 15.5375 16.3713 15.574C16.4256 15.5956 18.5913 16.4981 21.1838 17.5796ZM18.9313 18.2287C18.6812 18.7943 18.6154 18.7024 19.5302 19.0668C19.59 19.0906 19.6514 18.9808 19.829 18.5326L19.9292 18.2801L19.5371 18.1225C19.3215 18.0358 19.1268 17.9568 19.1044 17.947C19.0821 17.9372 19.0041 18.0639 18.9313 18.2287ZM11.4592 18.9902L11.4584 19.8242L9.53668 20.609L7.61486 21.3938L6.89873 21.1041C5.89067 20.6963 5.57267 20.5511 5.63572 20.5272C5.6658 20.5159 6.97009 19.9796 8.53415 19.3355C10.0982 18.6914 11.3964 18.1626 11.4189 18.1604C11.4414 18.1581 11.4596 18.5316 11.4592 18.9902ZM7.1323 22.1447L11.4599 23.9183V24.6467V25.375H10.5849H9.70993V25.8125V26.25H11.1883C12.6595 26.25 12.668 26.2507 12.9383 26.3876L13.2099 26.5253V26.8251V27.125H7.08494H0.959958V26.8251V26.5253L1.23159 26.3876L1.50322 26.25H5.16908H8.83493V25.8125V25.375L8.27439 25.376L7.71384 25.3769L5.2119 24.3536L2.70995 23.3302V22.7128V22.0953L2.96972 22.1979C3.11256 22.2544 3.47011 22.4008 3.76427 22.5233L4.299 22.746L4.43725 22.4336C4.66644 21.9152 4.71074 21.9663 3.65331 21.5304L2.70995 21.1414V20.738C2.70995 20.5162 2.73128 20.3428 2.75731 20.3529C2.78334 20.3629 4.75209 21.1692 7.1323 22.1447ZM11.4599 21.8757V22.9702L11.2822 22.8973C11.1845 22.8571 10.5942 22.6168 9.97046 22.3633C9.34675 22.1098 8.83608 21.8882 8.8357 21.8708C8.83498 21.8419 11.3258 20.7955 11.4189 20.7856C11.4414 20.7832 11.4599 21.2738 11.4599 21.8757ZM5.42605 22.4906C5.27976 22.8408 5.20501 23.0758 5.23158 23.1024C5.27008 23.1409 9.52962 24.883 9.58333 24.8822C9.62943 24.8814 9.95509 24.122 9.92069 24.0954C9.87946 24.0635 5.57693 22.3125 5.5398 22.3125C5.5182 22.3125 5.46701 22.3926 5.42605 22.4906ZM18.1318 24.5546C19.0792 24.9512 19.9036 25.2964 19.9638 25.3218C20.0264 25.3483 19.2608 25.3695 18.1728 25.3716L16.2724 25.375V24.5762C16.2724 23.9586 16.2879 23.7838 16.3408 23.8055C16.3784 23.8209 17.1843 24.158 18.1318 24.5546ZM3.96776 24.7907C4.5242 25.0178 5.06561 25.2412 5.17088 25.2872C5.34949 25.3652 5.27375 25.3708 4.03612 25.3729L2.70995 25.375V24.8295C2.70995 24.2863 2.7105 24.2841 2.833 24.3309C2.90065 24.3567 3.41132 24.5637 3.96776 24.7907Z" fill="#BF1E77"/>
</svg>
