<svg width="18" height="28" viewBox="0 0 18 28" fill="none" xmlns="http://www.w3.org/2000/svg">
<path fill-rule="evenodd" clip-rule="evenodd" d="M0.50504 0.114731C0.193134 0.268859 0 0.594008 0 0.96492C0 1.21582 0.0371265 1.29379 0.459317 1.929C1.61533 3.66836 2.24374 5.56343 2.61128 8.41875C2.69709 9.08523 2.70919 10.0609 2.7358 18.4701L2.76532 27.7832L2.8946 27.8877C3.07038 28.0298 3.26368 28.019 3.42489 27.858L3.55932 27.7238L3.5591 18.905C3.55894 13.446 3.53758 9.79469 3.50297 9.32088C3.26609 6.07655 2.50368 3.50433 1.20354 1.56295C0.980511 1.22993 0.824832 0.943597 0.84219 0.898381C0.867434 0.832772 1.05684 0.818994 1.93594 0.818994H2.99919L3.23411 1.21538C3.63319 1.88865 3.70465 1.96716 3.91805 1.96716C4.15094 1.96716 4.32594 1.80647 4.32594 1.59264C4.32594 1.50073 4.19962 1.22615 4.01787 0.922875C3.63609 0.285917 3.585 0.226486 3.31291 0.101719C3.12224 0.0142943 2.94142 0.00111777 1.91656 0.000133632C0.826474 -0.000959858 0.721885 0.00751468 0.50504 0.114731ZM13.7718 0.101719C13.5168 0.218613 13.4588 0.281817 13.15 0.779027C12.587 1.68526 11.9204 3.19673 11.6282 4.22975C11.5453 4.52292 11.453 4.74933 11.4207 4.73866C11.3853 4.72696 11.3505 4.42079 11.332 3.9584C11.2966 3.07393 11.2234 2.85977 10.8788 2.63205L10.6586 2.48657H8.54237H6.42616L6.20598 2.63205C5.86133 2.85977 5.78817 3.07393 5.75274 3.9584C5.73527 4.39531 5.69869 4.72724 5.66693 4.73773C5.63643 4.74774 5.56481 4.58978 5.50775 4.38672C5.33926 3.78738 5.00025 2.89684 4.8973 2.78328C4.75378 2.62495 4.46991 2.6443 4.32994 2.82199C4.26752 2.90122 4.21643 2.99832 4.21643 3.03774C4.21643 3.07721 4.34955 3.51056 4.51229 4.00083C4.93952 5.28792 4.93694 5.18032 4.54673 5.43051C4.13347 5.69558 3.9739 5.94188 3.9739 6.31482C3.9739 6.65123 4.02975 6.75211 4.7972 7.80175L5.36581 8.57949L4.90086 11.9299C4.64508 13.7727 4.43628 15.4157 4.43683 15.5811C4.43743 15.7534 4.48042 15.9751 4.53764 16.1005C4.66605 16.3821 5.00709 16.6876 5.33055 16.811L5.5854 16.9082V22.3369V27.7656L5.72969 27.8789C5.90957 28.0202 6.08266 28.0231 6.25011 27.8877L6.3794 27.7832L6.39391 22.4715C6.40755 17.4588 6.41373 17.1615 6.50343 17.1891C6.83844 17.2923 7.80499 17.3935 8.47256 17.3954C9.21716 17.3975 9.24909 17.4021 9.19658 17.5002C9.16629 17.5566 9.08684 17.6152 9.01992 17.6304C8.95306 17.6456 8.66421 17.7081 8.3781 17.7693C7.76518 17.9003 7.48607 18.0687 7.30083 18.4191C6.99746 18.9929 7.27673 19.7905 7.85789 20.0102C7.94824 20.0444 8.25478 20.1201 8.53903 20.1786C9.08251 20.2904 9.25424 20.3872 9.25424 20.5819C9.25424 20.8172 9.13437 20.8863 8.48614 21.0252C7.75877 21.1809 7.49604 21.3304 7.30083 21.6996C6.99746 22.2733 7.27673 23.071 7.85789 23.2907C7.94824 23.3248 8.25478 23.4006 8.53903 23.4591C9.08251 23.5709 9.25424 23.6676 9.25424 23.8623C9.25424 24.0976 9.13437 24.1668 8.48614 24.3056C7.75877 24.4613 7.49604 24.6109 7.30083 24.98C6.99746 25.5538 7.27673 26.3514 7.85789 26.5712C7.94824 26.6053 8.25478 26.6811 8.53903 26.7396C9.13952 26.863 9.27904 26.9558 9.22866 27.1982C9.12758 27.6841 9.12928 27.7227 9.25741 27.8589C9.72845 28.3595 10.2991 27.423 9.96747 26.6935C9.76514 26.2484 9.52469 26.1022 8.73403 25.9434C8.13015 25.8222 7.99478 25.7473 7.99478 25.5345C7.99478 25.3993 8.11098 25.2038 8.19131 25.2038C8.33938 25.2038 9.32882 24.9493 9.48006 24.8723C10.0261 24.5943 10.2245 23.9381 9.93691 23.3618C9.73825 22.9638 9.51018 22.8279 8.7734 22.6688C8.43368 22.5955 8.11952 22.5054 8.07528 22.4687C7.96921 22.3809 7.97244 22.1175 8.08081 22.0092C8.12818 21.962 8.1779 21.9234 8.19131 21.9234C8.33938 21.9234 9.32882 21.6688 9.48006 21.5918C10.0261 21.3138 10.2245 20.6576 9.93691 20.0813C9.73825 19.6833 9.51018 19.5474 8.7734 19.3883C8.43368 19.315 8.11952 19.2249 8.07528 19.1883C7.96921 19.1004 7.97244 18.837 8.08081 18.7288C8.12818 18.6815 8.1779 18.6429 8.19131 18.6429C8.34311 18.6429 9.33084 18.3873 9.48767 18.3075C9.75484 18.1714 10.0062 17.8213 10.051 17.5226C10.0841 17.3024 10.1003 17.2837 10.2864 17.2508C10.3963 17.2314 10.5291 17.203 10.5813 17.1877C10.671 17.1614 10.6772 17.4595 10.6908 22.4715L10.7053 27.7832L10.8346 27.8877C11.0021 28.0231 11.1752 28.0202 11.3551 27.8789L11.4993 27.7656L11.4996 22.3431L11.4997 16.9206L11.7568 16.8151C12.3104 16.5877 12.6459 16.125 12.6481 15.5856C12.6487 15.4227 12.5376 14.4755 12.4011 13.4806C12.1659 11.7665 12.1457 11.6654 12.0147 11.5489C11.8649 11.4155 11.7161 11.3939 11.5518 11.4818C11.3186 11.6064 11.3195 11.6712 11.5794 13.5492C11.7161 14.5364 11.8279 15.4362 11.8279 15.5488C11.8279 15.8428 11.6255 16.0193 11.0887 16.1932C10.8477 16.2713 10.5705 16.352 10.4726 16.3726L10.2947 16.4099L10.2945 14.2869C10.2945 11.9056 10.3007 11.9467 9.89256 11.6211L9.68212 11.4532H8.54237H7.40262L7.19218 11.6211C6.78407 11.9467 6.79025 11.9056 6.7902 14.2869L6.79009 16.4099L6.61212 16.3715C6.51427 16.3504 6.22471 16.2627 5.96871 16.1767C5.42638 15.9946 5.25673 15.8421 5.25706 15.537C5.2575 15.2058 6.34194 7.50087 6.40464 7.38393C6.51449 7.17901 6.68818 7.10656 7.06974 7.10656H7.4346L7.47091 7.39688C7.55907 8.10147 8.15906 8.54379 8.79601 8.3737C9.26311 8.24893 9.5501 7.90618 9.61384 7.39688L9.65014 7.10656H10.015C10.3957 7.10656 10.5703 7.17906 10.6793 7.38239C10.7106 7.44079 10.8197 8.08491 10.9216 8.81377C11.0974 10.0697 11.1146 10.1454 11.2515 10.263C11.4306 10.4168 11.5527 10.4195 11.7384 10.2737C11.9116 10.1376 11.9189 10.0078 11.8005 9.16522L11.7182 8.58042L12.2872 7.80219C13.055 6.75205 13.1108 6.65123 13.1108 6.31482C13.1108 5.94227 12.9515 5.6959 12.539 5.43051C12.3592 5.31488 12.212 5.20329 12.2117 5.18246C12.2103 5.06901 12.636 3.76573 12.8512 3.22467C13.1513 2.47011 13.3821 1.99969 13.7832 1.32473L14.0837 0.818994H15.1479C16.0278 0.818994 16.2173 0.832717 16.2426 0.898381C16.2599 0.943597 16.1042 1.22993 15.8812 1.56295C14.5778 3.50914 13.8219 6.05993 13.5822 9.32088C13.5512 9.74187 13.5258 10.7156 13.5256 11.4847C13.5254 12.8758 13.5261 12.8836 13.6521 13.0019C13.8274 13.1662 14.0898 13.1589 14.2262 12.9857C14.3254 12.8598 14.3346 12.725 14.3619 11.0038C14.3987 8.67638 14.542 7.40672 14.95 5.79153C15.3503 4.20723 15.8723 3.02959 16.7379 1.75852C17.0517 1.29761 17.0847 1.22266 17.0847 0.970551C17.0847 0.59029 16.8925 0.266726 16.5754 0.113474C16.357 0.0078974 16.2457 -0.00101453 15.1646 7.89579e-05C14.1433 0.00111777 13.9625 0.0142943 13.7718 0.101719ZM10.457 3.38509C10.4886 3.44403 10.5137 3.84162 10.5137 4.28333C10.5137 4.92308 10.5299 5.09197 10.5978 5.15977C10.6441 5.20597 11.0237 5.45463 11.4415 5.71236C11.8592 5.9701 12.2305 6.21641 12.2665 6.25971C12.3196 6.32362 12.2618 6.43625 11.9594 6.85807L11.587 7.37769L11.4657 7.12657C11.1806 6.53598 10.7782 6.28951 10.096 6.28765L9.65107 6.28644L9.62676 5.64402C9.60141 4.97437 9.51429 4.6859 9.27373 4.47513C8.81414 4.07229 8.05956 4.13495 7.69991 4.6058C7.51926 4.84227 7.45015 5.16518 7.44851 5.7807L7.4472 6.28644H7.00737C6.7344 6.28644 6.49029 6.31859 6.36396 6.37114C6.07921 6.48956 5.75745 6.81334 5.61853 7.12127L5.5009 7.38201L5.12685 6.86025C4.81357 6.42324 4.76402 6.32499 4.82173 6.25555C4.85962 6.20995 5.21857 5.97332 5.6194 5.72969C6.02018 5.48606 6.39829 5.24003 6.45957 5.183C6.5618 5.08792 6.57106 5.01357 6.57106 4.28508C6.57106 3.84217 6.59614 3.44408 6.62773 3.38509C6.68205 3.28372 6.76151 3.27935 8.54237 3.27935C10.3232 3.27935 10.4027 3.28372 10.457 3.38509ZM8.76278 5.16917C8.79213 5.24632 8.81617 5.76982 8.81617 6.33253C8.81617 7.42089 8.77773 7.59863 8.54237 7.59863C8.30702 7.59863 8.26858 7.42089 8.26858 6.33253C8.26858 5.16611 8.29738 5.02893 8.54237 5.02893C8.67122 5.02893 8.72154 5.06097 8.76278 5.16917ZM9.46024 14.4136L9.47453 16.554L9.00848 16.5733C8.7521 16.5839 8.33292 16.5839 8.07692 16.5733L7.61147 16.554V14.4364C7.61147 13.2718 7.6285 12.3019 7.64931 12.2811C7.67006 12.2603 8.08284 12.2501 8.56652 12.2583L9.44589 12.2733L9.46024 14.4136ZM13.6349 14.3783C13.5266 14.4864 13.5254 14.5605 13.5254 21.1266V27.7656L13.6697 27.8789C13.8611 28.0292 14.0482 28.022 14.2124 27.858L14.3468 27.7238V21.1404C14.3468 14.563 14.3467 14.5569 14.2333 14.413C14.0911 14.2325 13.798 14.2154 13.6349 14.3783Z" fill="#BF1E77"/>
</svg>
